%TF.GenerationSoftware,KiCad,Pcbnew,5.1.12-5.1.12*%
%TF.CreationDate,2021-12-16T19:46:46+00:00*%
%TF.ProjectId,UnoMeter,556e6f4d-6574-4657-922e-6b696361645f,V 0.5*%
%TF.SameCoordinates,Original*%
%TF.FileFunction,Legend,Bot*%
%TF.FilePolarity,Positive*%
%FSLAX46Y46*%
G04 Gerber Fmt 4.6, Leading zero omitted, Abs format (unit mm)*
G04 Created by KiCad (PCBNEW 5.1.12-5.1.12) date 2021-12-16 19:46:46*
%MOMM*%
%LPD*%
G01*
G04 APERTURE LIST*
%ADD10C,0.120000*%
%ADD11C,0.101600*%
G04 APERTURE END LIST*
D10*
%TO.C,R28*%
X147378000Y-88471000D02*
X150818000Y-88471000D01*
X150818000Y-88471000D02*
X150818000Y-97711000D01*
X150818000Y-97711000D02*
X147378000Y-97711000D01*
X147378000Y-97711000D02*
X147378000Y-88471000D01*
X149098000Y-83971000D02*
X149098000Y-88471000D01*
X149098000Y-102211000D02*
X149098000Y-97711000D01*
%TO.C,R27*%
X142044000Y-88471000D02*
X145484000Y-88471000D01*
X145484000Y-88471000D02*
X145484000Y-97711000D01*
X145484000Y-97711000D02*
X142044000Y-97711000D01*
X142044000Y-97711000D02*
X142044000Y-88471000D01*
X143764000Y-83971000D02*
X143764000Y-88471000D01*
X143764000Y-102211000D02*
X143764000Y-97711000D01*
%TO.C,R28*%
D11*
X146607809Y-92764428D02*
X146365904Y-92595095D01*
X146607809Y-92474142D02*
X146099809Y-92474142D01*
X146099809Y-92667666D01*
X146124000Y-92716047D01*
X146148190Y-92740238D01*
X146196571Y-92764428D01*
X146269142Y-92764428D01*
X146317523Y-92740238D01*
X146341714Y-92716047D01*
X146365904Y-92667666D01*
X146365904Y-92474142D01*
X146148190Y-92957952D02*
X146124000Y-92982142D01*
X146099809Y-93030523D01*
X146099809Y-93151476D01*
X146124000Y-93199857D01*
X146148190Y-93224047D01*
X146196571Y-93248238D01*
X146244952Y-93248238D01*
X146317523Y-93224047D01*
X146607809Y-92933761D01*
X146607809Y-93248238D01*
X146317523Y-93538523D02*
X146293333Y-93490142D01*
X146269142Y-93465952D01*
X146220761Y-93441761D01*
X146196571Y-93441761D01*
X146148190Y-93465952D01*
X146124000Y-93490142D01*
X146099809Y-93538523D01*
X146099809Y-93635285D01*
X146124000Y-93683666D01*
X146148190Y-93707857D01*
X146196571Y-93732047D01*
X146220761Y-93732047D01*
X146269142Y-93707857D01*
X146293333Y-93683666D01*
X146317523Y-93635285D01*
X146317523Y-93538523D01*
X146341714Y-93490142D01*
X146365904Y-93465952D01*
X146414285Y-93441761D01*
X146511047Y-93441761D01*
X146559428Y-93465952D01*
X146583619Y-93490142D01*
X146607809Y-93538523D01*
X146607809Y-93635285D01*
X146583619Y-93683666D01*
X146559428Y-93707857D01*
X146511047Y-93732047D01*
X146414285Y-93732047D01*
X146365904Y-93707857D01*
X146341714Y-93683666D01*
X146317523Y-93635285D01*
%TO.C,R27*%
X141273809Y-92764428D02*
X141031904Y-92595095D01*
X141273809Y-92474142D02*
X140765809Y-92474142D01*
X140765809Y-92667666D01*
X140790000Y-92716047D01*
X140814190Y-92740238D01*
X140862571Y-92764428D01*
X140935142Y-92764428D01*
X140983523Y-92740238D01*
X141007714Y-92716047D01*
X141031904Y-92667666D01*
X141031904Y-92474142D01*
X140814190Y-92957952D02*
X140790000Y-92982142D01*
X140765809Y-93030523D01*
X140765809Y-93151476D01*
X140790000Y-93199857D01*
X140814190Y-93224047D01*
X140862571Y-93248238D01*
X140910952Y-93248238D01*
X140983523Y-93224047D01*
X141273809Y-92933761D01*
X141273809Y-93248238D01*
X140765809Y-93417571D02*
X140765809Y-93756238D01*
X141273809Y-93538523D01*
%TD*%
M02*
