%TF.GenerationSoftware,KiCad,Pcbnew,5.1.12-5.1.12*%
%TF.CreationDate,2021-12-16T19:46:46+00:00*%
%TF.ProjectId,UnoMeter,556e6f4d-6574-4657-922e-6b696361645f,V 0.5*%
%TF.SameCoordinates,Original*%
%TF.FileFunction,Legend,Top*%
%TF.FilePolarity,Positive*%
%FSLAX46Y46*%
G04 Gerber Fmt 4.6, Leading zero omitted, Abs format (unit mm)*
G04 Created by KiCad (PCBNEW 5.1.12-5.1.12) date 2021-12-16 19:46:46*
%MOMM*%
%LPD*%
G01*
G04 APERTURE LIST*
%ADD10C,0.150000*%
%ADD11C,0.120000*%
%ADD12C,0.101600*%
G04 APERTURE END LIST*
D10*
X139390380Y-120999285D02*
X139390380Y-121570714D01*
X139390380Y-121285000D02*
X138390380Y-121285000D01*
X138533238Y-121380238D01*
X138628476Y-121475476D01*
X138676095Y-121570714D01*
D11*
%TO.C,U7*%
X132502000Y-96509000D02*
X132502000Y-98309000D01*
X135722000Y-98309000D02*
X135722000Y-95859000D01*
%TO.C,R36*%
X129046500Y-86249742D02*
X129046500Y-86724258D01*
X128001500Y-86249742D02*
X128001500Y-86724258D01*
%TO.C,R35*%
X127268500Y-86249742D02*
X127268500Y-86724258D01*
X126223500Y-86249742D02*
X126223500Y-86724258D01*
%TO.C,C21*%
X133971420Y-99693000D02*
X134252580Y-99693000D01*
X133971420Y-100713000D02*
X134252580Y-100713000D01*
%TO.C,R34*%
X150097258Y-86980500D02*
X149622742Y-86980500D01*
X150097258Y-88025500D02*
X149622742Y-88025500D01*
%TO.C,D2*%
X165370000Y-82133000D02*
X167370000Y-82133000D01*
X167370000Y-82133000D02*
X167370000Y-78233000D01*
X165370000Y-82133000D02*
X165370000Y-78233000D01*
%TO.C,R33*%
X169645064Y-92048000D02*
X169190936Y-92048000D01*
X169645064Y-90578000D02*
X169190936Y-90578000D01*
%TO.C,R32*%
X161304500Y-78375742D02*
X161304500Y-78850258D01*
X160259500Y-78375742D02*
X160259500Y-78850258D01*
%TO.C,R31*%
X158733258Y-78627500D02*
X158258742Y-78627500D01*
X158733258Y-77582500D02*
X158258742Y-77582500D01*
%TO.C,Q1*%
X164082000Y-80447000D02*
X164082000Y-79517000D01*
X164082000Y-77287000D02*
X164082000Y-78217000D01*
X164082000Y-77287000D02*
X161922000Y-77287000D01*
X164082000Y-80447000D02*
X162622000Y-80447000D01*
D10*
%TO.C,K1*%
X174662000Y-77731000D02*
X175412000Y-77731000D01*
X175412000Y-77731000D02*
X175412000Y-78481000D01*
X169012000Y-77731000D02*
X169012000Y-78481000D01*
X169762000Y-77731000D02*
X169012000Y-77731000D01*
X169612000Y-77731000D02*
X169012000Y-78331000D01*
X169462000Y-77731000D02*
X169012000Y-78181000D01*
X169312000Y-77731000D02*
X169012000Y-78031000D01*
X169162000Y-77731000D02*
X169012000Y-77881000D01*
X175412000Y-87381000D02*
X175412000Y-88131000D01*
X174662000Y-88131000D02*
X175412000Y-88131000D01*
X169012000Y-88131000D02*
X169762000Y-88131000D01*
X169012000Y-87381000D02*
X169012000Y-88131000D01*
D11*
%TO.C,C18*%
X169679252Y-90016000D02*
X169156748Y-90016000D01*
X169679252Y-88546000D02*
X169156748Y-88546000D01*
%TO.C,C24*%
X172712748Y-88546000D02*
X173235252Y-88546000D01*
X172712748Y-90016000D02*
X173235252Y-90016000D01*
%TO.C,U2*%
X166098000Y-97975000D02*
X167898000Y-97975000D01*
X167898000Y-94755000D02*
X165448000Y-94755000D01*
%TO.C,R9*%
X173498742Y-115682500D02*
X173973258Y-115682500D01*
X173498742Y-116727500D02*
X173973258Y-116727500D01*
%TO.C,R8*%
X171720742Y-114158500D02*
X172195258Y-114158500D01*
X171720742Y-115203500D02*
X172195258Y-115203500D01*
%TO.C,R7*%
X170196742Y-115682500D02*
X170671258Y-115682500D01*
X170196742Y-116727500D02*
X170671258Y-116727500D01*
%TO.C,R6*%
X169149500Y-114156258D02*
X169149500Y-113681742D01*
X170194500Y-114156258D02*
X170194500Y-113681742D01*
%TO.C,R5*%
X171720742Y-112634500D02*
X172195258Y-112634500D01*
X171720742Y-113679500D02*
X172195258Y-113679500D01*
%TO.C,R4*%
X172195258Y-112155500D02*
X171720742Y-112155500D01*
X172195258Y-111110500D02*
X171720742Y-111110500D01*
%TO.C,R3*%
X169149500Y-111108258D02*
X169149500Y-110633742D01*
X170194500Y-111108258D02*
X170194500Y-110633742D01*
%TO.C,R2*%
X171720742Y-109586500D02*
X172195258Y-109586500D01*
X171720742Y-110631500D02*
X172195258Y-110631500D01*
%TO.C,R1*%
X172746936Y-90578000D02*
X173201064Y-90578000D01*
X172746936Y-92048000D02*
X173201064Y-92048000D01*
%TO.C,C20*%
X156831420Y-83691000D02*
X157112580Y-83691000D01*
X156831420Y-84711000D02*
X157112580Y-84711000D01*
%TO.C,C19*%
X160022000Y-83298420D02*
X160022000Y-83579580D01*
X159002000Y-83298420D02*
X159002000Y-83579580D01*
%TO.C,C7*%
X166510580Y-101475000D02*
X166229420Y-101475000D01*
X166510580Y-100455000D02*
X166229420Y-100455000D01*
%TO.C,U13*%
X145150000Y-91907000D02*
X146950000Y-91907000D01*
X146950000Y-88687000D02*
X144500000Y-88687000D01*
%TO.C,U12*%
X161406000Y-119339000D02*
X163206000Y-119339000D01*
X163206000Y-116119000D02*
X160756000Y-116119000D01*
%TO.C,U11*%
X161406000Y-112227000D02*
X163206000Y-112227000D01*
X163206000Y-109007000D02*
X160756000Y-109007000D01*
%TO.C,U10*%
X161406000Y-105115000D02*
X163206000Y-105115000D01*
X163206000Y-101895000D02*
X160756000Y-101895000D01*
%TO.C,U9*%
X161406000Y-100797000D02*
X163206000Y-100797000D01*
X163206000Y-97577000D02*
X160756000Y-97577000D01*
%TO.C,U8*%
X163662000Y-89281000D02*
X163662000Y-87781000D01*
X163662000Y-89281000D02*
X163662000Y-90781000D01*
X160442000Y-89281000D02*
X160442000Y-87781000D01*
X160442000Y-89281000D02*
X160442000Y-92206000D01*
%TO.C,R30*%
X132065500Y-88502258D02*
X132065500Y-88027742D01*
X133110500Y-88502258D02*
X133110500Y-88027742D01*
%TO.C,R29*%
X130541500Y-88502258D02*
X130541500Y-88027742D01*
X131586500Y-88502258D02*
X131586500Y-88027742D01*
%TO.C,R26*%
X160034500Y-89297742D02*
X160034500Y-89772258D01*
X158989500Y-89297742D02*
X158989500Y-89772258D01*
%TO.C,R25*%
X162066500Y-93869742D02*
X162066500Y-94344258D01*
X161021500Y-93869742D02*
X161021500Y-94344258D01*
%TO.C,R24*%
X163592742Y-92822500D02*
X164067258Y-92822500D01*
X163592742Y-93867500D02*
X164067258Y-93867500D01*
%TO.C,R23*%
X150097258Y-92597500D02*
X149622742Y-92597500D01*
X150097258Y-91552500D02*
X149622742Y-91552500D01*
%TO.C,R22*%
X143778500Y-90059742D02*
X143778500Y-90534258D01*
X142733500Y-90059742D02*
X142733500Y-90534258D01*
%TO.C,R21*%
X163336500Y-84217742D02*
X163336500Y-84692258D01*
X162291500Y-84217742D02*
X162291500Y-84692258D01*
%TO.C,R20*%
X161812500Y-84217742D02*
X161812500Y-84692258D01*
X160767500Y-84217742D02*
X160767500Y-84692258D01*
%TO.C,R19*%
X141209500Y-90534258D02*
X141209500Y-90059742D01*
X142254500Y-90534258D02*
X142254500Y-90059742D01*
%TO.C,R18*%
X166089000Y-117501936D02*
X166089000Y-117956064D01*
X164619000Y-117501936D02*
X164619000Y-117956064D01*
%TO.C,R17*%
X166651000Y-117956064D02*
X166651000Y-117501936D01*
X168121000Y-117956064D02*
X168121000Y-117501936D01*
%TO.C,R16*%
X166089000Y-110389936D02*
X166089000Y-110844064D01*
X164619000Y-110389936D02*
X164619000Y-110844064D01*
%TO.C,R15*%
X166651000Y-110844064D02*
X166651000Y-110389936D01*
X168121000Y-110844064D02*
X168121000Y-110389936D01*
%TO.C,R14*%
X166089000Y-103277936D02*
X166089000Y-103732064D01*
X164619000Y-103277936D02*
X164619000Y-103732064D01*
%TO.C,R13*%
X166651000Y-103732064D02*
X166651000Y-103277936D01*
X168121000Y-103732064D02*
X168121000Y-103277936D01*
%TO.C,R12*%
X173763000Y-111352064D02*
X173763000Y-110897936D01*
X175233000Y-111352064D02*
X175233000Y-110897936D01*
%TO.C,R11*%
X177265000Y-110897936D02*
X177265000Y-111352064D01*
X175795000Y-110897936D02*
X175795000Y-111352064D01*
%TO.C,R10*%
X175022742Y-114158500D02*
X175497258Y-114158500D01*
X175022742Y-115203500D02*
X175497258Y-115203500D01*
%TO.C,JP4*%
X159304000Y-95507000D02*
X158704000Y-95507000D01*
X160004000Y-93407000D02*
X160004000Y-94807000D01*
X158704000Y-92707000D02*
X159304000Y-92707000D01*
X158004000Y-94807000D02*
X158004000Y-93407000D01*
X158704000Y-95507000D02*
G75*
G02*
X158004000Y-94807000I0J700000D01*
G01*
X160004000Y-94807000D02*
G75*
G02*
X159304000Y-95507000I-700000J0D01*
G01*
X159304000Y-92707000D02*
G75*
G02*
X160004000Y-93407000I0J-700000D01*
G01*
X158004000Y-93407000D02*
G75*
G02*
X158704000Y-92707000I700000J0D01*
G01*
%TO.C,JP3*%
X158704000Y-96517000D02*
X159304000Y-96517000D01*
X158004000Y-98617000D02*
X158004000Y-97217000D01*
X159304000Y-99317000D02*
X158704000Y-99317000D01*
X160004000Y-97217000D02*
X160004000Y-98617000D01*
X159304000Y-96517000D02*
G75*
G02*
X160004000Y-97217000I0J-700000D01*
G01*
X158004000Y-97217000D02*
G75*
G02*
X158704000Y-96517000I700000J0D01*
G01*
X158704000Y-99317000D02*
G75*
G02*
X158004000Y-98617000I0J700000D01*
G01*
X160004000Y-98617000D02*
G75*
G02*
X159304000Y-99317000I-700000J0D01*
G01*
%TO.C,JP2*%
X158704000Y-99819000D02*
X159304000Y-99819000D01*
X158004000Y-101919000D02*
X158004000Y-100519000D01*
X159304000Y-102619000D02*
X158704000Y-102619000D01*
X160004000Y-100519000D02*
X160004000Y-101919000D01*
X159304000Y-99819000D02*
G75*
G02*
X160004000Y-100519000I0J-700000D01*
G01*
X158004000Y-100519000D02*
G75*
G02*
X158704000Y-99819000I700000J0D01*
G01*
X158704000Y-102619000D02*
G75*
G02*
X158004000Y-101919000I0J700000D01*
G01*
X160004000Y-101919000D02*
G75*
G02*
X159304000Y-102619000I-700000J0D01*
G01*
%TO.C,C34*%
X152065000Y-85547000D02*
X152065000Y-81637000D01*
X152065000Y-81637000D02*
X150195000Y-81637000D01*
X150195000Y-81637000D02*
X150195000Y-85547000D01*
%TO.C,C33*%
X153529420Y-83691000D02*
X153810580Y-83691000D01*
X153529420Y-84711000D02*
X153810580Y-84711000D01*
%TO.C,C32*%
X175373420Y-106551000D02*
X175654580Y-106551000D01*
X175373420Y-107571000D02*
X175654580Y-107571000D01*
%TO.C,C31*%
X159002000Y-86627580D02*
X159002000Y-86346420D01*
X160022000Y-86627580D02*
X160022000Y-86346420D01*
%TO.C,C30*%
X167018580Y-94109000D02*
X166737420Y-94109000D01*
X167018580Y-93089000D02*
X166737420Y-93089000D01*
%TO.C,C29*%
X151386000Y-94220420D02*
X151386000Y-94501580D01*
X150366000Y-94220420D02*
X150366000Y-94501580D01*
%TO.C,C28*%
X175373420Y-108075000D02*
X175654580Y-108075000D01*
X175373420Y-109095000D02*
X175654580Y-109095000D01*
%TO.C,C27*%
X166510580Y-114175000D02*
X166229420Y-114175000D01*
X166510580Y-113155000D02*
X166229420Y-113155000D01*
%TO.C,C26*%
X166510580Y-107063000D02*
X166229420Y-107063000D01*
X166510580Y-106043000D02*
X166229420Y-106043000D01*
%TO.C,C25*%
X166510580Y-99951000D02*
X166229420Y-99951000D01*
X166510580Y-98931000D02*
X166229420Y-98931000D01*
%TO.C,C23*%
X161911420Y-81659000D02*
X162192580Y-81659000D01*
X161911420Y-82679000D02*
X162192580Y-82679000D01*
%TO.C,C22*%
X149719420Y-88263000D02*
X150000580Y-88263000D01*
X149719420Y-89283000D02*
X150000580Y-89283000D01*
%TO.C,C17*%
X163462580Y-97157000D02*
X163181420Y-97157000D01*
X163462580Y-96137000D02*
X163181420Y-96137000D01*
%TO.C,C12*%
X166510580Y-115699000D02*
X166229420Y-115699000D01*
X166510580Y-114679000D02*
X166229420Y-114679000D01*
%TO.C,U5*%
X128910000Y-99625000D02*
X128910000Y-100725000D01*
X129180000Y-99625000D02*
X128910000Y-99625000D01*
X129180000Y-98125000D02*
X129180000Y-99625000D01*
X122550000Y-99625000D02*
X122550000Y-102455000D01*
X122280000Y-99625000D02*
X122550000Y-99625000D01*
X122280000Y-98125000D02*
X122280000Y-99625000D01*
%TO.C,U1*%
X145980000Y-109215000D02*
X147080000Y-109215000D01*
X145980000Y-108945000D02*
X145980000Y-109215000D01*
X144480000Y-108945000D02*
X145980000Y-108945000D01*
X145980000Y-115575000D02*
X148810000Y-115575000D01*
X145980000Y-115845000D02*
X145980000Y-115575000D01*
X144480000Y-115845000D02*
X145980000Y-115845000D01*
%TO.C,Q3*%
X132840000Y-93655000D02*
X131380000Y-93655000D01*
X132840000Y-90495000D02*
X130680000Y-90495000D01*
X132840000Y-90495000D02*
X132840000Y-91425000D01*
X132840000Y-93655000D02*
X132840000Y-92725000D01*
%TO.C,FB2*%
X153872000Y-103867378D02*
X153872000Y-104666622D01*
X154992000Y-103867378D02*
X154992000Y-104666622D01*
%TO.C,FB1*%
X116534000Y-91421378D02*
X116534000Y-92220622D01*
X117654000Y-91421378D02*
X117654000Y-92220622D01*
%TO.C,C15*%
X131237000Y-103835000D02*
X131237000Y-99925000D01*
X131237000Y-99925000D02*
X129367000Y-99925000D01*
X129367000Y-99925000D02*
X129367000Y-103835000D01*
%TO.C,C14*%
X127394580Y-103249000D02*
X127113420Y-103249000D01*
X127394580Y-104269000D02*
X127113420Y-104269000D01*
%TO.C,C13*%
X124065420Y-104269000D02*
X124346580Y-104269000D01*
X124065420Y-103249000D02*
X124346580Y-103249000D01*
%TO.C,C9*%
X156208000Y-103872420D02*
X156208000Y-104153580D01*
X157228000Y-103872420D02*
X157228000Y-104153580D01*
%TO.C,C6*%
X148868000Y-105110000D02*
X144958000Y-105110000D01*
X148868000Y-106980000D02*
X148868000Y-105110000D01*
X144958000Y-106980000D02*
X148868000Y-106980000D01*
%TO.C,C5*%
X116308000Y-87676000D02*
X120218000Y-87676000D01*
X116308000Y-85806000D02*
X116308000Y-87676000D01*
X120218000Y-85806000D02*
X116308000Y-85806000D01*
%TO.C,C4*%
X147206580Y-107567000D02*
X146925420Y-107567000D01*
X147206580Y-108587000D02*
X146925420Y-108587000D01*
%TO.C,C3*%
X117715420Y-89283000D02*
X117996580Y-89283000D01*
X117715420Y-88263000D02*
X117996580Y-88263000D01*
%TO.C,C2*%
X146952580Y-116457000D02*
X146671420Y-116457000D01*
X146952580Y-117477000D02*
X146671420Y-117477000D01*
%TO.C,C1*%
X150660000Y-117649000D02*
X151660000Y-117649000D01*
X151160000Y-118149000D02*
X151160000Y-117149000D01*
X156865563Y-116909000D02*
X157930000Y-115844563D01*
X150474437Y-116909000D02*
X149410000Y-115844563D01*
X150474437Y-116909000D02*
X152160000Y-116909000D01*
X156865563Y-116909000D02*
X155180000Y-116909000D01*
X157930000Y-115844563D02*
X157930000Y-108389000D01*
X149410000Y-115844563D02*
X149410000Y-108389000D01*
X149410000Y-108389000D02*
X152160000Y-108389000D01*
X157930000Y-108389000D02*
X155180000Y-108389000D01*
%TO.C,C10*%
X148842000Y-94220420D02*
X148842000Y-94501580D01*
X149862000Y-94220420D02*
X149862000Y-94501580D01*
%TO.C,U6*%
X140630000Y-93969000D02*
X140630000Y-96419000D01*
X143850000Y-95769000D02*
X143850000Y-93969000D01*
%TO.C,FB3*%
X149714378Y-97461000D02*
X150513622Y-97461000D01*
X149714378Y-96341000D02*
X150513622Y-96341000D01*
D10*
%TO.C,U4*%
X157123000Y-83082000D02*
X157123000Y-82857000D01*
X153773000Y-83082000D02*
X153773000Y-82782000D01*
X153773000Y-79732000D02*
X153773000Y-80032000D01*
X157123000Y-79732000D02*
X157123000Y-80032000D01*
X157123000Y-83082000D02*
X153773000Y-83082000D01*
X157123000Y-79732000D02*
X153773000Y-79732000D01*
X157123000Y-82857000D02*
X158348000Y-82857000D01*
D11*
%TO.C,J1*%
X179898000Y-105205000D02*
X179898000Y-104705000D01*
X179158000Y-105205000D02*
X179898000Y-105205000D01*
X176021000Y-98512000D02*
X176067000Y-98559000D01*
X173723000Y-96215000D02*
X173759000Y-96250000D01*
X176237000Y-98319000D02*
X176272000Y-98354000D01*
X173929000Y-96010000D02*
X173975000Y-96057000D01*
X169737000Y-94685000D02*
X179658000Y-94685000D01*
X169737000Y-104965000D02*
X179658000Y-104965000D01*
X179658000Y-104965000D02*
X179658000Y-94685000D01*
X169737000Y-104965000D02*
X169737000Y-94685000D01*
X172697000Y-104965000D02*
X172697000Y-94685000D01*
X177598000Y-104965000D02*
X177598000Y-94685000D01*
X179098000Y-104965000D02*
X179098000Y-94685000D01*
X176678000Y-97285000D02*
G75*
G03*
X176678000Y-97285000I-1680000J0D01*
G01*
X176678253Y-102336195D02*
G75*
G02*
X176533000Y-103049000I-1680253J-28805D01*
G01*
X175681042Y-103900426D02*
G75*
G02*
X174314000Y-103900000I-683042J1535426D01*
G01*
X173462574Y-103048042D02*
G75*
G02*
X173463000Y-101681000I1535426J683042D01*
G01*
X174314958Y-100829574D02*
G75*
G02*
X175682000Y-100830000I683042J-1535426D01*
G01*
X176532756Y-101681682D02*
G75*
G02*
X176678000Y-102365000I-1534756J-683318D01*
G01*
%TO.C,U3*%
X147184000Y-92851000D02*
X144754000Y-92851000D01*
X145424000Y-95921000D02*
X147184000Y-95921000D01*
%TO.C,D1*%
X131124000Y-82060000D02*
X131124000Y-79400000D01*
X122174000Y-82060000D02*
X120844000Y-82060000D01*
X120844000Y-82060000D02*
X120844000Y-80730000D01*
X123444000Y-82060000D02*
X131124000Y-82060000D01*
X123444000Y-82060000D02*
X123444000Y-79400000D01*
X123444000Y-79400000D02*
X131124000Y-79400000D01*
X139700000Y-106511000D02*
X139700000Y-79333000D01*
X112309000Y-101430000D02*
X139700000Y-101431000D01*
X112384000Y-84540000D02*
X139700000Y-84540000D01*
X112268000Y-106511000D02*
X112395000Y-79333000D01*
X139700000Y-106511000D02*
X112268000Y-106511000D01*
X112395000Y-79333000D02*
X139700000Y-79333000D01*
%TO.C,C16*%
X142380580Y-97153000D02*
X142099420Y-97153000D01*
X142380580Y-98173000D02*
X142099420Y-98173000D01*
%TO.C,C11*%
X166510580Y-107567000D02*
X166229420Y-107567000D01*
X166510580Y-108587000D02*
X166229420Y-108587000D01*
%TO.C,C8*%
X146952580Y-97411000D02*
X146671420Y-97411000D01*
X146952580Y-96391000D02*
X146671420Y-96391000D01*
D10*
%TO.C,P1*%
X140208000Y-125095000D02*
X157988000Y-125095000D01*
X157988000Y-125095000D02*
X157988000Y-122555000D01*
X157988000Y-122555000D02*
X140208000Y-122555000D01*
X137388000Y-125375000D02*
X138938000Y-125375000D01*
X140208000Y-125095000D02*
X140208000Y-122555000D01*
X138938000Y-122275000D02*
X137388000Y-122275000D01*
X137388000Y-122275000D02*
X137388000Y-125375000D01*
%TO.C,P2*%
X163068000Y-125095000D02*
X175768000Y-125095000D01*
X175768000Y-125095000D02*
X175768000Y-122555000D01*
X175768000Y-122555000D02*
X163068000Y-122555000D01*
X160248000Y-125375000D02*
X161798000Y-125375000D01*
X163068000Y-125095000D02*
X163068000Y-122555000D01*
X161798000Y-122275000D02*
X160248000Y-122275000D01*
X160248000Y-122275000D02*
X160248000Y-125375000D01*
%TO.C,P3*%
X131064000Y-76835000D02*
X153924000Y-76835000D01*
X153924000Y-76835000D02*
X153924000Y-74295000D01*
X153924000Y-74295000D02*
X131064000Y-74295000D01*
X128244000Y-77115000D02*
X129794000Y-77115000D01*
X131064000Y-76835000D02*
X131064000Y-74295000D01*
X129794000Y-74015000D02*
X128244000Y-74015000D01*
X128244000Y-74015000D02*
X128244000Y-77115000D01*
%TO.C,P4*%
X157988000Y-76835000D02*
X175768000Y-76835000D01*
X175768000Y-76835000D02*
X175768000Y-74295000D01*
X175768000Y-74295000D02*
X157988000Y-74295000D01*
X155168000Y-77115000D02*
X156718000Y-77115000D01*
X157988000Y-76835000D02*
X157988000Y-74295000D01*
X156718000Y-74015000D02*
X155168000Y-74015000D01*
X155168000Y-74015000D02*
X155168000Y-77115000D01*
%TO.C,P5*%
X127254000Y-123825000D02*
G75*
G03*
X127254000Y-123825000I-2286000J0D01*
G01*
%TO.C,P6*%
X179324000Y-118745000D02*
G75*
G03*
X179324000Y-118745000I-2286000J0D01*
G01*
%TO.C,P7*%
X128524000Y-75565000D02*
G75*
G03*
X128524000Y-75565000I-2286000J0D01*
G01*
%TO.C,P8*%
X179324000Y-90805000D02*
G75*
G03*
X179324000Y-90805000I-2286000J0D01*
G01*
%TO.C,U7*%
D12*
X135992809Y-97542047D02*
X136404047Y-97542047D01*
X136452428Y-97517857D01*
X136476619Y-97493666D01*
X136500809Y-97445285D01*
X136500809Y-97348523D01*
X136476619Y-97300142D01*
X136452428Y-97275952D01*
X136404047Y-97251761D01*
X135992809Y-97251761D01*
X135992809Y-97058238D02*
X135992809Y-96719571D01*
X136500809Y-96937285D01*
%TO.C,R36*%
X129896809Y-86813571D02*
X129654904Y-86982904D01*
X129896809Y-87103857D02*
X129388809Y-87103857D01*
X129388809Y-86910333D01*
X129413000Y-86861952D01*
X129437190Y-86837761D01*
X129485571Y-86813571D01*
X129558142Y-86813571D01*
X129606523Y-86837761D01*
X129630714Y-86861952D01*
X129654904Y-86910333D01*
X129654904Y-87103857D01*
X129388809Y-86644238D02*
X129388809Y-86329761D01*
X129582333Y-86499095D01*
X129582333Y-86426523D01*
X129606523Y-86378142D01*
X129630714Y-86353952D01*
X129679095Y-86329761D01*
X129800047Y-86329761D01*
X129848428Y-86353952D01*
X129872619Y-86378142D01*
X129896809Y-86426523D01*
X129896809Y-86571666D01*
X129872619Y-86620047D01*
X129848428Y-86644238D01*
X129388809Y-85894333D02*
X129388809Y-85991095D01*
X129413000Y-86039476D01*
X129437190Y-86063666D01*
X129509761Y-86112047D01*
X129606523Y-86136238D01*
X129800047Y-86136238D01*
X129848428Y-86112047D01*
X129872619Y-86087857D01*
X129896809Y-86039476D01*
X129896809Y-85942714D01*
X129872619Y-85894333D01*
X129848428Y-85870142D01*
X129800047Y-85845952D01*
X129679095Y-85845952D01*
X129630714Y-85870142D01*
X129606523Y-85894333D01*
X129582333Y-85942714D01*
X129582333Y-86039476D01*
X129606523Y-86087857D01*
X129630714Y-86112047D01*
X129679095Y-86136238D01*
%TO.C,R35*%
X125959809Y-86813571D02*
X125717904Y-86982904D01*
X125959809Y-87103857D02*
X125451809Y-87103857D01*
X125451809Y-86910333D01*
X125476000Y-86861952D01*
X125500190Y-86837761D01*
X125548571Y-86813571D01*
X125621142Y-86813571D01*
X125669523Y-86837761D01*
X125693714Y-86861952D01*
X125717904Y-86910333D01*
X125717904Y-87103857D01*
X125451809Y-86644238D02*
X125451809Y-86329761D01*
X125645333Y-86499095D01*
X125645333Y-86426523D01*
X125669523Y-86378142D01*
X125693714Y-86353952D01*
X125742095Y-86329761D01*
X125863047Y-86329761D01*
X125911428Y-86353952D01*
X125935619Y-86378142D01*
X125959809Y-86426523D01*
X125959809Y-86571666D01*
X125935619Y-86620047D01*
X125911428Y-86644238D01*
X125451809Y-85870142D02*
X125451809Y-86112047D01*
X125693714Y-86136238D01*
X125669523Y-86112047D01*
X125645333Y-86063666D01*
X125645333Y-85942714D01*
X125669523Y-85894333D01*
X125693714Y-85870142D01*
X125742095Y-85845952D01*
X125863047Y-85845952D01*
X125911428Y-85870142D01*
X125935619Y-85894333D01*
X125959809Y-85942714D01*
X125959809Y-86063666D01*
X125935619Y-86112047D01*
X125911428Y-86136238D01*
%TO.C,C21*%
X136325428Y-100529571D02*
X136349619Y-100553761D01*
X136373809Y-100626333D01*
X136373809Y-100674714D01*
X136349619Y-100747285D01*
X136301238Y-100795666D01*
X136252857Y-100819857D01*
X136156095Y-100844047D01*
X136083523Y-100844047D01*
X135986761Y-100819857D01*
X135938380Y-100795666D01*
X135890000Y-100747285D01*
X135865809Y-100674714D01*
X135865809Y-100626333D01*
X135890000Y-100553761D01*
X135914190Y-100529571D01*
X135914190Y-100336047D02*
X135890000Y-100311857D01*
X135865809Y-100263476D01*
X135865809Y-100142523D01*
X135890000Y-100094142D01*
X135914190Y-100069952D01*
X135962571Y-100045761D01*
X136010952Y-100045761D01*
X136083523Y-100069952D01*
X136373809Y-100360238D01*
X136373809Y-100045761D01*
X136373809Y-99561952D02*
X136373809Y-99852238D01*
X136373809Y-99707095D02*
X135865809Y-99707095D01*
X135938380Y-99755476D01*
X135986761Y-99803857D01*
X136010952Y-99852238D01*
%TO.C,R34*%
X148771428Y-86462809D02*
X148602095Y-86220904D01*
X148481142Y-86462809D02*
X148481142Y-85954809D01*
X148674666Y-85954809D01*
X148723047Y-85979000D01*
X148747238Y-86003190D01*
X148771428Y-86051571D01*
X148771428Y-86124142D01*
X148747238Y-86172523D01*
X148723047Y-86196714D01*
X148674666Y-86220904D01*
X148481142Y-86220904D01*
X148940761Y-85954809D02*
X149255238Y-85954809D01*
X149085904Y-86148333D01*
X149158476Y-86148333D01*
X149206857Y-86172523D01*
X149231047Y-86196714D01*
X149255238Y-86245095D01*
X149255238Y-86366047D01*
X149231047Y-86414428D01*
X149206857Y-86438619D01*
X149158476Y-86462809D01*
X149013333Y-86462809D01*
X148964952Y-86438619D01*
X148940761Y-86414428D01*
X149690666Y-86124142D02*
X149690666Y-86462809D01*
X149569714Y-85930619D02*
X149448761Y-86293476D01*
X149763238Y-86293476D01*
%TO.C,D2*%
X165075809Y-80257952D02*
X164567809Y-80257952D01*
X164567809Y-80137000D01*
X164592000Y-80064428D01*
X164640380Y-80016047D01*
X164688761Y-79991857D01*
X164785523Y-79967666D01*
X164858095Y-79967666D01*
X164954857Y-79991857D01*
X165003238Y-80016047D01*
X165051619Y-80064428D01*
X165075809Y-80137000D01*
X165075809Y-80257952D01*
X164616190Y-79774142D02*
X164592000Y-79749952D01*
X164567809Y-79701571D01*
X164567809Y-79580619D01*
X164592000Y-79532238D01*
X164616190Y-79508047D01*
X164664571Y-79483857D01*
X164712952Y-79483857D01*
X164785523Y-79508047D01*
X165075809Y-79798333D01*
X165075809Y-79483857D01*
%TO.C,R33*%
X169091428Y-93574809D02*
X168922095Y-93332904D01*
X168801142Y-93574809D02*
X168801142Y-93066809D01*
X168994666Y-93066809D01*
X169043047Y-93091000D01*
X169067238Y-93115190D01*
X169091428Y-93163571D01*
X169091428Y-93236142D01*
X169067238Y-93284523D01*
X169043047Y-93308714D01*
X168994666Y-93332904D01*
X168801142Y-93332904D01*
X169260761Y-93066809D02*
X169575238Y-93066809D01*
X169405904Y-93260333D01*
X169478476Y-93260333D01*
X169526857Y-93284523D01*
X169551047Y-93308714D01*
X169575238Y-93357095D01*
X169575238Y-93478047D01*
X169551047Y-93526428D01*
X169526857Y-93550619D01*
X169478476Y-93574809D01*
X169333333Y-93574809D01*
X169284952Y-93550619D01*
X169260761Y-93526428D01*
X169744571Y-93066809D02*
X170059047Y-93066809D01*
X169889714Y-93260333D01*
X169962285Y-93260333D01*
X170010666Y-93284523D01*
X170034857Y-93308714D01*
X170059047Y-93357095D01*
X170059047Y-93478047D01*
X170034857Y-93526428D01*
X170010666Y-93550619D01*
X169962285Y-93574809D01*
X169817142Y-93574809D01*
X169768761Y-93550619D01*
X169744571Y-93526428D01*
%TO.C,R32*%
X159995809Y-79701571D02*
X159753904Y-79870904D01*
X159995809Y-79991857D02*
X159487809Y-79991857D01*
X159487809Y-79798333D01*
X159512000Y-79749952D01*
X159536190Y-79725761D01*
X159584571Y-79701571D01*
X159657142Y-79701571D01*
X159705523Y-79725761D01*
X159729714Y-79749952D01*
X159753904Y-79798333D01*
X159753904Y-79991857D01*
X159487809Y-79532238D02*
X159487809Y-79217761D01*
X159681333Y-79387095D01*
X159681333Y-79314523D01*
X159705523Y-79266142D01*
X159729714Y-79241952D01*
X159778095Y-79217761D01*
X159899047Y-79217761D01*
X159947428Y-79241952D01*
X159971619Y-79266142D01*
X159995809Y-79314523D01*
X159995809Y-79459666D01*
X159971619Y-79508047D01*
X159947428Y-79532238D01*
X159536190Y-79024238D02*
X159512000Y-79000047D01*
X159487809Y-78951666D01*
X159487809Y-78830714D01*
X159512000Y-78782333D01*
X159536190Y-78758142D01*
X159584571Y-78733952D01*
X159632952Y-78733952D01*
X159705523Y-78758142D01*
X159995809Y-79048428D01*
X159995809Y-78733952D01*
%TO.C,R31*%
X157915428Y-79604809D02*
X157746095Y-79362904D01*
X157625142Y-79604809D02*
X157625142Y-79096809D01*
X157818666Y-79096809D01*
X157867047Y-79121000D01*
X157891238Y-79145190D01*
X157915428Y-79193571D01*
X157915428Y-79266142D01*
X157891238Y-79314523D01*
X157867047Y-79338714D01*
X157818666Y-79362904D01*
X157625142Y-79362904D01*
X158084761Y-79096809D02*
X158399238Y-79096809D01*
X158229904Y-79290333D01*
X158302476Y-79290333D01*
X158350857Y-79314523D01*
X158375047Y-79338714D01*
X158399238Y-79387095D01*
X158399238Y-79508047D01*
X158375047Y-79556428D01*
X158350857Y-79580619D01*
X158302476Y-79604809D01*
X158157333Y-79604809D01*
X158108952Y-79580619D01*
X158084761Y-79556428D01*
X158883047Y-79604809D02*
X158592761Y-79604809D01*
X158737904Y-79604809D02*
X158737904Y-79096809D01*
X158689523Y-79169380D01*
X158641142Y-79217761D01*
X158592761Y-79241952D01*
%TO.C,Q1*%
X164035619Y-81177190D02*
X163987238Y-81153000D01*
X163938857Y-81104619D01*
X163866285Y-81032047D01*
X163817904Y-81007857D01*
X163769523Y-81007857D01*
X163793714Y-81128809D02*
X163745333Y-81104619D01*
X163696952Y-81056238D01*
X163672761Y-80959476D01*
X163672761Y-80790142D01*
X163696952Y-80693380D01*
X163745333Y-80645000D01*
X163793714Y-80620809D01*
X163890476Y-80620809D01*
X163938857Y-80645000D01*
X163987238Y-80693380D01*
X164011428Y-80790142D01*
X164011428Y-80959476D01*
X163987238Y-81056238D01*
X163938857Y-81104619D01*
X163890476Y-81128809D01*
X163793714Y-81128809D01*
X164495238Y-81128809D02*
X164204952Y-81128809D01*
X164350095Y-81128809D02*
X164350095Y-80620809D01*
X164301714Y-80693380D01*
X164253333Y-80741761D01*
X164204952Y-80765952D01*
%TO.C,K1*%
X168027047Y-77572809D02*
X168027047Y-77064809D01*
X168317333Y-77572809D02*
X168099619Y-77282523D01*
X168317333Y-77064809D02*
X168027047Y-77355095D01*
X168801142Y-77572809D02*
X168510857Y-77572809D01*
X168656000Y-77572809D02*
X168656000Y-77064809D01*
X168607619Y-77137380D01*
X168559238Y-77185761D01*
X168510857Y-77209952D01*
%TO.C,C18*%
X169091428Y-92764428D02*
X169067238Y-92788619D01*
X168994666Y-92812809D01*
X168946285Y-92812809D01*
X168873714Y-92788619D01*
X168825333Y-92740238D01*
X168801142Y-92691857D01*
X168776952Y-92595095D01*
X168776952Y-92522523D01*
X168801142Y-92425761D01*
X168825333Y-92377380D01*
X168873714Y-92329000D01*
X168946285Y-92304809D01*
X168994666Y-92304809D01*
X169067238Y-92329000D01*
X169091428Y-92353190D01*
X169575238Y-92812809D02*
X169284952Y-92812809D01*
X169430095Y-92812809D02*
X169430095Y-92304809D01*
X169381714Y-92377380D01*
X169333333Y-92425761D01*
X169284952Y-92449952D01*
X169865523Y-92522523D02*
X169817142Y-92498333D01*
X169792952Y-92474142D01*
X169768761Y-92425761D01*
X169768761Y-92401571D01*
X169792952Y-92353190D01*
X169817142Y-92329000D01*
X169865523Y-92304809D01*
X169962285Y-92304809D01*
X170010666Y-92329000D01*
X170034857Y-92353190D01*
X170059047Y-92401571D01*
X170059047Y-92425761D01*
X170034857Y-92474142D01*
X170010666Y-92498333D01*
X169962285Y-92522523D01*
X169865523Y-92522523D01*
X169817142Y-92546714D01*
X169792952Y-92570904D01*
X169768761Y-92619285D01*
X169768761Y-92716047D01*
X169792952Y-92764428D01*
X169817142Y-92788619D01*
X169865523Y-92812809D01*
X169962285Y-92812809D01*
X170010666Y-92788619D01*
X170034857Y-92764428D01*
X170059047Y-92716047D01*
X170059047Y-92619285D01*
X170034857Y-92570904D01*
X170010666Y-92546714D01*
X169962285Y-92522523D01*
%TO.C,C24*%
X172647428Y-92764428D02*
X172623238Y-92788619D01*
X172550666Y-92812809D01*
X172502285Y-92812809D01*
X172429714Y-92788619D01*
X172381333Y-92740238D01*
X172357142Y-92691857D01*
X172332952Y-92595095D01*
X172332952Y-92522523D01*
X172357142Y-92425761D01*
X172381333Y-92377380D01*
X172429714Y-92329000D01*
X172502285Y-92304809D01*
X172550666Y-92304809D01*
X172623238Y-92329000D01*
X172647428Y-92353190D01*
X172840952Y-92353190D02*
X172865142Y-92329000D01*
X172913523Y-92304809D01*
X173034476Y-92304809D01*
X173082857Y-92329000D01*
X173107047Y-92353190D01*
X173131238Y-92401571D01*
X173131238Y-92449952D01*
X173107047Y-92522523D01*
X172816761Y-92812809D01*
X173131238Y-92812809D01*
X173566666Y-92474142D02*
X173566666Y-92812809D01*
X173445714Y-92280619D02*
X173324761Y-92643476D01*
X173639238Y-92643476D01*
%TO.C,U2*%
X164567809Y-95510047D02*
X164979047Y-95510047D01*
X165027428Y-95485857D01*
X165051619Y-95461666D01*
X165075809Y-95413285D01*
X165075809Y-95316523D01*
X165051619Y-95268142D01*
X165027428Y-95243952D01*
X164979047Y-95219761D01*
X164567809Y-95219761D01*
X164616190Y-95002047D02*
X164592000Y-94977857D01*
X164567809Y-94929476D01*
X164567809Y-94808523D01*
X164592000Y-94760142D01*
X164616190Y-94735952D01*
X164664571Y-94711761D01*
X164712952Y-94711761D01*
X164785523Y-94735952D01*
X165075809Y-95026238D01*
X165075809Y-94711761D01*
%TO.C,R9*%
X173651333Y-117450809D02*
X173482000Y-117208904D01*
X173361047Y-117450809D02*
X173361047Y-116942809D01*
X173554571Y-116942809D01*
X173602952Y-116967000D01*
X173627142Y-116991190D01*
X173651333Y-117039571D01*
X173651333Y-117112142D01*
X173627142Y-117160523D01*
X173602952Y-117184714D01*
X173554571Y-117208904D01*
X173361047Y-117208904D01*
X173893238Y-117450809D02*
X173990000Y-117450809D01*
X174038380Y-117426619D01*
X174062571Y-117402428D01*
X174110952Y-117329857D01*
X174135142Y-117233095D01*
X174135142Y-117039571D01*
X174110952Y-116991190D01*
X174086761Y-116967000D01*
X174038380Y-116942809D01*
X173941619Y-116942809D01*
X173893238Y-116967000D01*
X173869047Y-116991190D01*
X173844857Y-117039571D01*
X173844857Y-117160523D01*
X173869047Y-117208904D01*
X173893238Y-117233095D01*
X173941619Y-117257285D01*
X174038380Y-117257285D01*
X174086761Y-117233095D01*
X174110952Y-117208904D01*
X174135142Y-117160523D01*
%TO.C,R8*%
X171873333Y-120244809D02*
X171704000Y-120002904D01*
X171583047Y-120244809D02*
X171583047Y-119736809D01*
X171776571Y-119736809D01*
X171824952Y-119761000D01*
X171849142Y-119785190D01*
X171873333Y-119833571D01*
X171873333Y-119906142D01*
X171849142Y-119954523D01*
X171824952Y-119978714D01*
X171776571Y-120002904D01*
X171583047Y-120002904D01*
X172163619Y-119954523D02*
X172115238Y-119930333D01*
X172091047Y-119906142D01*
X172066857Y-119857761D01*
X172066857Y-119833571D01*
X172091047Y-119785190D01*
X172115238Y-119761000D01*
X172163619Y-119736809D01*
X172260380Y-119736809D01*
X172308761Y-119761000D01*
X172332952Y-119785190D01*
X172357142Y-119833571D01*
X172357142Y-119857761D01*
X172332952Y-119906142D01*
X172308761Y-119930333D01*
X172260380Y-119954523D01*
X172163619Y-119954523D01*
X172115238Y-119978714D01*
X172091047Y-120002904D01*
X172066857Y-120051285D01*
X172066857Y-120148047D01*
X172091047Y-120196428D01*
X172115238Y-120220619D01*
X172163619Y-120244809D01*
X172260380Y-120244809D01*
X172308761Y-120220619D01*
X172332952Y-120196428D01*
X172357142Y-120148047D01*
X172357142Y-120051285D01*
X172332952Y-120002904D01*
X172308761Y-119978714D01*
X172260380Y-119954523D01*
%TO.C,R7*%
X170349333Y-117450809D02*
X170180000Y-117208904D01*
X170059047Y-117450809D02*
X170059047Y-116942809D01*
X170252571Y-116942809D01*
X170300952Y-116967000D01*
X170325142Y-116991190D01*
X170349333Y-117039571D01*
X170349333Y-117112142D01*
X170325142Y-117160523D01*
X170300952Y-117184714D01*
X170252571Y-117208904D01*
X170059047Y-117208904D01*
X170518666Y-116942809D02*
X170857333Y-116942809D01*
X170639619Y-117450809D01*
%TO.C,R6*%
X168885809Y-114003666D02*
X168643904Y-114173000D01*
X168885809Y-114293952D02*
X168377809Y-114293952D01*
X168377809Y-114100428D01*
X168402000Y-114052047D01*
X168426190Y-114027857D01*
X168474571Y-114003666D01*
X168547142Y-114003666D01*
X168595523Y-114027857D01*
X168619714Y-114052047D01*
X168643904Y-114100428D01*
X168643904Y-114293952D01*
X168377809Y-113568238D02*
X168377809Y-113665000D01*
X168402000Y-113713380D01*
X168426190Y-113737571D01*
X168498761Y-113785952D01*
X168595523Y-113810142D01*
X168789047Y-113810142D01*
X168837428Y-113785952D01*
X168861619Y-113761761D01*
X168885809Y-113713380D01*
X168885809Y-113616619D01*
X168861619Y-113568238D01*
X168837428Y-113544047D01*
X168789047Y-113519857D01*
X168668095Y-113519857D01*
X168619714Y-113544047D01*
X168595523Y-113568238D01*
X168571333Y-113616619D01*
X168571333Y-113713380D01*
X168595523Y-113761761D01*
X168619714Y-113785952D01*
X168668095Y-113810142D01*
%TO.C,R5*%
X171873333Y-119482809D02*
X171704000Y-119240904D01*
X171583047Y-119482809D02*
X171583047Y-118974809D01*
X171776571Y-118974809D01*
X171824952Y-118999000D01*
X171849142Y-119023190D01*
X171873333Y-119071571D01*
X171873333Y-119144142D01*
X171849142Y-119192523D01*
X171824952Y-119216714D01*
X171776571Y-119240904D01*
X171583047Y-119240904D01*
X172332952Y-118974809D02*
X172091047Y-118974809D01*
X172066857Y-119216714D01*
X172091047Y-119192523D01*
X172139428Y-119168333D01*
X172260380Y-119168333D01*
X172308761Y-119192523D01*
X172332952Y-119216714D01*
X172357142Y-119265095D01*
X172357142Y-119386047D01*
X172332952Y-119434428D01*
X172308761Y-119458619D01*
X172260380Y-119482809D01*
X172139428Y-119482809D01*
X172091047Y-119458619D01*
X172066857Y-119434428D01*
%TO.C,R4*%
X171873333Y-118720809D02*
X171704000Y-118478904D01*
X171583047Y-118720809D02*
X171583047Y-118212809D01*
X171776571Y-118212809D01*
X171824952Y-118237000D01*
X171849142Y-118261190D01*
X171873333Y-118309571D01*
X171873333Y-118382142D01*
X171849142Y-118430523D01*
X171824952Y-118454714D01*
X171776571Y-118478904D01*
X171583047Y-118478904D01*
X172308761Y-118382142D02*
X172308761Y-118720809D01*
X172187809Y-118188619D02*
X172066857Y-118551476D01*
X172381333Y-118551476D01*
%TO.C,R3*%
X168885809Y-110955666D02*
X168643904Y-111125000D01*
X168885809Y-111245952D02*
X168377809Y-111245952D01*
X168377809Y-111052428D01*
X168402000Y-111004047D01*
X168426190Y-110979857D01*
X168474571Y-110955666D01*
X168547142Y-110955666D01*
X168595523Y-110979857D01*
X168619714Y-111004047D01*
X168643904Y-111052428D01*
X168643904Y-111245952D01*
X168377809Y-110786333D02*
X168377809Y-110471857D01*
X168571333Y-110641190D01*
X168571333Y-110568619D01*
X168595523Y-110520238D01*
X168619714Y-110496047D01*
X168668095Y-110471857D01*
X168789047Y-110471857D01*
X168837428Y-110496047D01*
X168861619Y-110520238D01*
X168885809Y-110568619D01*
X168885809Y-110713761D01*
X168861619Y-110762142D01*
X168837428Y-110786333D01*
%TO.C,R2*%
X171873333Y-117958809D02*
X171704000Y-117716904D01*
X171583047Y-117958809D02*
X171583047Y-117450809D01*
X171776571Y-117450809D01*
X171824952Y-117475000D01*
X171849142Y-117499190D01*
X171873333Y-117547571D01*
X171873333Y-117620142D01*
X171849142Y-117668523D01*
X171824952Y-117692714D01*
X171776571Y-117716904D01*
X171583047Y-117716904D01*
X172066857Y-117499190D02*
X172091047Y-117475000D01*
X172139428Y-117450809D01*
X172260380Y-117450809D01*
X172308761Y-117475000D01*
X172332952Y-117499190D01*
X172357142Y-117547571D01*
X172357142Y-117595952D01*
X172332952Y-117668523D01*
X172042666Y-117958809D01*
X172357142Y-117958809D01*
%TO.C,R1*%
X172889333Y-93574809D02*
X172720000Y-93332904D01*
X172599047Y-93574809D02*
X172599047Y-93066809D01*
X172792571Y-93066809D01*
X172840952Y-93091000D01*
X172865142Y-93115190D01*
X172889333Y-93163571D01*
X172889333Y-93236142D01*
X172865142Y-93284523D01*
X172840952Y-93308714D01*
X172792571Y-93332904D01*
X172599047Y-93332904D01*
X173373142Y-93574809D02*
X173082857Y-93574809D01*
X173228000Y-93574809D02*
X173228000Y-93066809D01*
X173179619Y-93139380D01*
X173131238Y-93187761D01*
X173082857Y-93211952D01*
%TO.C,C20*%
X156645428Y-85398428D02*
X156621238Y-85422619D01*
X156548666Y-85446809D01*
X156500285Y-85446809D01*
X156427714Y-85422619D01*
X156379333Y-85374238D01*
X156355142Y-85325857D01*
X156330952Y-85229095D01*
X156330952Y-85156523D01*
X156355142Y-85059761D01*
X156379333Y-85011380D01*
X156427714Y-84963000D01*
X156500285Y-84938809D01*
X156548666Y-84938809D01*
X156621238Y-84963000D01*
X156645428Y-84987190D01*
X156838952Y-84987190D02*
X156863142Y-84963000D01*
X156911523Y-84938809D01*
X157032476Y-84938809D01*
X157080857Y-84963000D01*
X157105047Y-84987190D01*
X157129238Y-85035571D01*
X157129238Y-85083952D01*
X157105047Y-85156523D01*
X156814761Y-85446809D01*
X157129238Y-85446809D01*
X157443714Y-84938809D02*
X157492095Y-84938809D01*
X157540476Y-84963000D01*
X157564666Y-84987190D01*
X157588857Y-85035571D01*
X157613047Y-85132333D01*
X157613047Y-85253285D01*
X157588857Y-85350047D01*
X157564666Y-85398428D01*
X157540476Y-85422619D01*
X157492095Y-85446809D01*
X157443714Y-85446809D01*
X157395333Y-85422619D01*
X157371142Y-85398428D01*
X157346952Y-85350047D01*
X157322761Y-85253285D01*
X157322761Y-85132333D01*
X157346952Y-85035571D01*
X157371142Y-84987190D01*
X157395333Y-84963000D01*
X157443714Y-84938809D01*
%TO.C,C19*%
X159693428Y-81479571D02*
X159717619Y-81503761D01*
X159741809Y-81576333D01*
X159741809Y-81624714D01*
X159717619Y-81697285D01*
X159669238Y-81745666D01*
X159620857Y-81769857D01*
X159524095Y-81794047D01*
X159451523Y-81794047D01*
X159354761Y-81769857D01*
X159306380Y-81745666D01*
X159258000Y-81697285D01*
X159233809Y-81624714D01*
X159233809Y-81576333D01*
X159258000Y-81503761D01*
X159282190Y-81479571D01*
X159741809Y-80995761D02*
X159741809Y-81286047D01*
X159741809Y-81140904D02*
X159233809Y-81140904D01*
X159306380Y-81189285D01*
X159354761Y-81237666D01*
X159378952Y-81286047D01*
X159741809Y-80753857D02*
X159741809Y-80657095D01*
X159717619Y-80608714D01*
X159693428Y-80584523D01*
X159620857Y-80536142D01*
X159524095Y-80511952D01*
X159330571Y-80511952D01*
X159282190Y-80536142D01*
X159258000Y-80560333D01*
X159233809Y-80608714D01*
X159233809Y-80705476D01*
X159258000Y-80753857D01*
X159282190Y-80778047D01*
X159330571Y-80802238D01*
X159451523Y-80802238D01*
X159499904Y-80778047D01*
X159524095Y-80753857D01*
X159548285Y-80705476D01*
X159548285Y-80608714D01*
X159524095Y-80560333D01*
X159499904Y-80536142D01*
X159451523Y-80511952D01*
%TO.C,C7*%
X164773428Y-101049666D02*
X164797619Y-101073857D01*
X164821809Y-101146428D01*
X164821809Y-101194809D01*
X164797619Y-101267380D01*
X164749238Y-101315761D01*
X164700857Y-101339952D01*
X164604095Y-101364142D01*
X164531523Y-101364142D01*
X164434761Y-101339952D01*
X164386380Y-101315761D01*
X164338000Y-101267380D01*
X164313809Y-101194809D01*
X164313809Y-101146428D01*
X164338000Y-101073857D01*
X164362190Y-101049666D01*
X164313809Y-100880333D02*
X164313809Y-100541666D01*
X164821809Y-100759380D01*
%TO.C,U13*%
X146945047Y-87732809D02*
X146945047Y-88144047D01*
X146969238Y-88192428D01*
X146993428Y-88216619D01*
X147041809Y-88240809D01*
X147138571Y-88240809D01*
X147186952Y-88216619D01*
X147211142Y-88192428D01*
X147235333Y-88144047D01*
X147235333Y-87732809D01*
X147743333Y-88240809D02*
X147453047Y-88240809D01*
X147598190Y-88240809D02*
X147598190Y-87732809D01*
X147549809Y-87805380D01*
X147501428Y-87853761D01*
X147453047Y-87877952D01*
X147912666Y-87732809D02*
X148227142Y-87732809D01*
X148057809Y-87926333D01*
X148130380Y-87926333D01*
X148178761Y-87950523D01*
X148202952Y-87974714D01*
X148227142Y-88023095D01*
X148227142Y-88144047D01*
X148202952Y-88192428D01*
X148178761Y-88216619D01*
X148130380Y-88240809D01*
X147985238Y-88240809D01*
X147936857Y-88216619D01*
X147912666Y-88192428D01*
%TO.C,U12*%
X162185047Y-115418809D02*
X162185047Y-115830047D01*
X162209238Y-115878428D01*
X162233428Y-115902619D01*
X162281809Y-115926809D01*
X162378571Y-115926809D01*
X162426952Y-115902619D01*
X162451142Y-115878428D01*
X162475333Y-115830047D01*
X162475333Y-115418809D01*
X162983333Y-115926809D02*
X162693047Y-115926809D01*
X162838190Y-115926809D02*
X162838190Y-115418809D01*
X162789809Y-115491380D01*
X162741428Y-115539761D01*
X162693047Y-115563952D01*
X163176857Y-115467190D02*
X163201047Y-115443000D01*
X163249428Y-115418809D01*
X163370380Y-115418809D01*
X163418761Y-115443000D01*
X163442952Y-115467190D01*
X163467142Y-115515571D01*
X163467142Y-115563952D01*
X163442952Y-115636523D01*
X163152666Y-115926809D01*
X163467142Y-115926809D01*
%TO.C,U11*%
X162185047Y-108306809D02*
X162185047Y-108718047D01*
X162209238Y-108766428D01*
X162233428Y-108790619D01*
X162281809Y-108814809D01*
X162378571Y-108814809D01*
X162426952Y-108790619D01*
X162451142Y-108766428D01*
X162475333Y-108718047D01*
X162475333Y-108306809D01*
X162983333Y-108814809D02*
X162693047Y-108814809D01*
X162838190Y-108814809D02*
X162838190Y-108306809D01*
X162789809Y-108379380D01*
X162741428Y-108427761D01*
X162693047Y-108451952D01*
X163467142Y-108814809D02*
X163176857Y-108814809D01*
X163322000Y-108814809D02*
X163322000Y-108306809D01*
X163273619Y-108379380D01*
X163225238Y-108427761D01*
X163176857Y-108451952D01*
%TO.C,U10*%
X161931047Y-101194809D02*
X161931047Y-101606047D01*
X161955238Y-101654428D01*
X161979428Y-101678619D01*
X162027809Y-101702809D01*
X162124571Y-101702809D01*
X162172952Y-101678619D01*
X162197142Y-101654428D01*
X162221333Y-101606047D01*
X162221333Y-101194809D01*
X162729333Y-101702809D02*
X162439047Y-101702809D01*
X162584190Y-101702809D02*
X162584190Y-101194809D01*
X162535809Y-101267380D01*
X162487428Y-101315761D01*
X162439047Y-101339952D01*
X163043809Y-101194809D02*
X163092190Y-101194809D01*
X163140571Y-101219000D01*
X163164761Y-101243190D01*
X163188952Y-101291571D01*
X163213142Y-101388333D01*
X163213142Y-101509285D01*
X163188952Y-101606047D01*
X163164761Y-101654428D01*
X163140571Y-101678619D01*
X163092190Y-101702809D01*
X163043809Y-101702809D01*
X162995428Y-101678619D01*
X162971238Y-101654428D01*
X162947047Y-101606047D01*
X162922857Y-101509285D01*
X162922857Y-101388333D01*
X162947047Y-101291571D01*
X162971238Y-101243190D01*
X162995428Y-101219000D01*
X163043809Y-101194809D01*
%TO.C,U9*%
X160648952Y-96622809D02*
X160648952Y-97034047D01*
X160673142Y-97082428D01*
X160697333Y-97106619D01*
X160745714Y-97130809D01*
X160842476Y-97130809D01*
X160890857Y-97106619D01*
X160915047Y-97082428D01*
X160939238Y-97034047D01*
X160939238Y-96622809D01*
X161205333Y-97130809D02*
X161302095Y-97130809D01*
X161350476Y-97106619D01*
X161374666Y-97082428D01*
X161423047Y-97009857D01*
X161447238Y-96913095D01*
X161447238Y-96719571D01*
X161423047Y-96671190D01*
X161398857Y-96647000D01*
X161350476Y-96622809D01*
X161253714Y-96622809D01*
X161205333Y-96647000D01*
X161181142Y-96671190D01*
X161156952Y-96719571D01*
X161156952Y-96840523D01*
X161181142Y-96888904D01*
X161205333Y-96913095D01*
X161253714Y-96937285D01*
X161350476Y-96937285D01*
X161398857Y-96913095D01*
X161423047Y-96888904D01*
X161447238Y-96840523D01*
%TO.C,U8*%
X159741809Y-91954047D02*
X160153047Y-91954047D01*
X160201428Y-91929857D01*
X160225619Y-91905666D01*
X160249809Y-91857285D01*
X160249809Y-91760523D01*
X160225619Y-91712142D01*
X160201428Y-91687952D01*
X160153047Y-91663761D01*
X159741809Y-91663761D01*
X159959523Y-91349285D02*
X159935333Y-91397666D01*
X159911142Y-91421857D01*
X159862761Y-91446047D01*
X159838571Y-91446047D01*
X159790190Y-91421857D01*
X159766000Y-91397666D01*
X159741809Y-91349285D01*
X159741809Y-91252523D01*
X159766000Y-91204142D01*
X159790190Y-91179952D01*
X159838571Y-91155761D01*
X159862761Y-91155761D01*
X159911142Y-91179952D01*
X159935333Y-91204142D01*
X159959523Y-91252523D01*
X159959523Y-91349285D01*
X159983714Y-91397666D01*
X160007904Y-91421857D01*
X160056285Y-91446047D01*
X160153047Y-91446047D01*
X160201428Y-91421857D01*
X160225619Y-91397666D01*
X160249809Y-91349285D01*
X160249809Y-91252523D01*
X160225619Y-91204142D01*
X160201428Y-91179952D01*
X160153047Y-91155761D01*
X160056285Y-91155761D01*
X160007904Y-91179952D01*
X159983714Y-91204142D01*
X159959523Y-91252523D01*
%TO.C,R30*%
X133833809Y-88591571D02*
X133591904Y-88760904D01*
X133833809Y-88881857D02*
X133325809Y-88881857D01*
X133325809Y-88688333D01*
X133350000Y-88639952D01*
X133374190Y-88615761D01*
X133422571Y-88591571D01*
X133495142Y-88591571D01*
X133543523Y-88615761D01*
X133567714Y-88639952D01*
X133591904Y-88688333D01*
X133591904Y-88881857D01*
X133325809Y-88422238D02*
X133325809Y-88107761D01*
X133519333Y-88277095D01*
X133519333Y-88204523D01*
X133543523Y-88156142D01*
X133567714Y-88131952D01*
X133616095Y-88107761D01*
X133737047Y-88107761D01*
X133785428Y-88131952D01*
X133809619Y-88156142D01*
X133833809Y-88204523D01*
X133833809Y-88349666D01*
X133809619Y-88398047D01*
X133785428Y-88422238D01*
X133325809Y-87793285D02*
X133325809Y-87744904D01*
X133350000Y-87696523D01*
X133374190Y-87672333D01*
X133422571Y-87648142D01*
X133519333Y-87623952D01*
X133640285Y-87623952D01*
X133737047Y-87648142D01*
X133785428Y-87672333D01*
X133809619Y-87696523D01*
X133833809Y-87744904D01*
X133833809Y-87793285D01*
X133809619Y-87841666D01*
X133785428Y-87865857D01*
X133737047Y-87890047D01*
X133640285Y-87914238D01*
X133519333Y-87914238D01*
X133422571Y-87890047D01*
X133374190Y-87865857D01*
X133350000Y-87841666D01*
X133325809Y-87793285D01*
%TO.C,R29*%
X130277809Y-88591571D02*
X130035904Y-88760904D01*
X130277809Y-88881857D02*
X129769809Y-88881857D01*
X129769809Y-88688333D01*
X129794000Y-88639952D01*
X129818190Y-88615761D01*
X129866571Y-88591571D01*
X129939142Y-88591571D01*
X129987523Y-88615761D01*
X130011714Y-88639952D01*
X130035904Y-88688333D01*
X130035904Y-88881857D01*
X129818190Y-88398047D02*
X129794000Y-88373857D01*
X129769809Y-88325476D01*
X129769809Y-88204523D01*
X129794000Y-88156142D01*
X129818190Y-88131952D01*
X129866571Y-88107761D01*
X129914952Y-88107761D01*
X129987523Y-88131952D01*
X130277809Y-88422238D01*
X130277809Y-88107761D01*
X130277809Y-87865857D02*
X130277809Y-87769095D01*
X130253619Y-87720714D01*
X130229428Y-87696523D01*
X130156857Y-87648142D01*
X130060095Y-87623952D01*
X129866571Y-87623952D01*
X129818190Y-87648142D01*
X129794000Y-87672333D01*
X129769809Y-87720714D01*
X129769809Y-87817476D01*
X129794000Y-87865857D01*
X129818190Y-87890047D01*
X129866571Y-87914238D01*
X129987523Y-87914238D01*
X130035904Y-87890047D01*
X130060095Y-87865857D01*
X130084285Y-87817476D01*
X130084285Y-87720714D01*
X130060095Y-87672333D01*
X130035904Y-87648142D01*
X129987523Y-87623952D01*
%TO.C,R26*%
X158725809Y-89607571D02*
X158483904Y-89776904D01*
X158725809Y-89897857D02*
X158217809Y-89897857D01*
X158217809Y-89704333D01*
X158242000Y-89655952D01*
X158266190Y-89631761D01*
X158314571Y-89607571D01*
X158387142Y-89607571D01*
X158435523Y-89631761D01*
X158459714Y-89655952D01*
X158483904Y-89704333D01*
X158483904Y-89897857D01*
X158266190Y-89414047D02*
X158242000Y-89389857D01*
X158217809Y-89341476D01*
X158217809Y-89220523D01*
X158242000Y-89172142D01*
X158266190Y-89147952D01*
X158314571Y-89123761D01*
X158362952Y-89123761D01*
X158435523Y-89147952D01*
X158725809Y-89438238D01*
X158725809Y-89123761D01*
X158217809Y-88688333D02*
X158217809Y-88785095D01*
X158242000Y-88833476D01*
X158266190Y-88857666D01*
X158338761Y-88906047D01*
X158435523Y-88930238D01*
X158629047Y-88930238D01*
X158677428Y-88906047D01*
X158701619Y-88881857D01*
X158725809Y-88833476D01*
X158725809Y-88736714D01*
X158701619Y-88688333D01*
X158677428Y-88664142D01*
X158629047Y-88639952D01*
X158508095Y-88639952D01*
X158459714Y-88664142D01*
X158435523Y-88688333D01*
X158411333Y-88736714D01*
X158411333Y-88833476D01*
X158435523Y-88881857D01*
X158459714Y-88906047D01*
X158508095Y-88930238D01*
%TO.C,R25*%
X162789809Y-94941571D02*
X162547904Y-95110904D01*
X162789809Y-95231857D02*
X162281809Y-95231857D01*
X162281809Y-95038333D01*
X162306000Y-94989952D01*
X162330190Y-94965761D01*
X162378571Y-94941571D01*
X162451142Y-94941571D01*
X162499523Y-94965761D01*
X162523714Y-94989952D01*
X162547904Y-95038333D01*
X162547904Y-95231857D01*
X162330190Y-94748047D02*
X162306000Y-94723857D01*
X162281809Y-94675476D01*
X162281809Y-94554523D01*
X162306000Y-94506142D01*
X162330190Y-94481952D01*
X162378571Y-94457761D01*
X162426952Y-94457761D01*
X162499523Y-94481952D01*
X162789809Y-94772238D01*
X162789809Y-94457761D01*
X162281809Y-93998142D02*
X162281809Y-94240047D01*
X162523714Y-94264238D01*
X162499523Y-94240047D01*
X162475333Y-94191666D01*
X162475333Y-94070714D01*
X162499523Y-94022333D01*
X162523714Y-93998142D01*
X162572095Y-93973952D01*
X162693047Y-93973952D01*
X162741428Y-93998142D01*
X162765619Y-94022333D01*
X162789809Y-94070714D01*
X162789809Y-94191666D01*
X162765619Y-94240047D01*
X162741428Y-94264238D01*
%TO.C,R24*%
X163503428Y-94590809D02*
X163334095Y-94348904D01*
X163213142Y-94590809D02*
X163213142Y-94082809D01*
X163406666Y-94082809D01*
X163455047Y-94107000D01*
X163479238Y-94131190D01*
X163503428Y-94179571D01*
X163503428Y-94252142D01*
X163479238Y-94300523D01*
X163455047Y-94324714D01*
X163406666Y-94348904D01*
X163213142Y-94348904D01*
X163696952Y-94131190D02*
X163721142Y-94107000D01*
X163769523Y-94082809D01*
X163890476Y-94082809D01*
X163938857Y-94107000D01*
X163963047Y-94131190D01*
X163987238Y-94179571D01*
X163987238Y-94227952D01*
X163963047Y-94300523D01*
X163672761Y-94590809D01*
X163987238Y-94590809D01*
X164422666Y-94252142D02*
X164422666Y-94590809D01*
X164301714Y-94058619D02*
X164180761Y-94421476D01*
X164495238Y-94421476D01*
%TO.C,R23*%
X149533428Y-91288809D02*
X149364095Y-91046904D01*
X149243142Y-91288809D02*
X149243142Y-90780809D01*
X149436666Y-90780809D01*
X149485047Y-90805000D01*
X149509238Y-90829190D01*
X149533428Y-90877571D01*
X149533428Y-90950142D01*
X149509238Y-90998523D01*
X149485047Y-91022714D01*
X149436666Y-91046904D01*
X149243142Y-91046904D01*
X149726952Y-90829190D02*
X149751142Y-90805000D01*
X149799523Y-90780809D01*
X149920476Y-90780809D01*
X149968857Y-90805000D01*
X149993047Y-90829190D01*
X150017238Y-90877571D01*
X150017238Y-90925952D01*
X149993047Y-90998523D01*
X149702761Y-91288809D01*
X150017238Y-91288809D01*
X150186571Y-90780809D02*
X150501047Y-90780809D01*
X150331714Y-90974333D01*
X150404285Y-90974333D01*
X150452666Y-90998523D01*
X150476857Y-91022714D01*
X150501047Y-91071095D01*
X150501047Y-91192047D01*
X150476857Y-91240428D01*
X150452666Y-91264619D01*
X150404285Y-91288809D01*
X150259142Y-91288809D01*
X150210761Y-91264619D01*
X150186571Y-91240428D01*
%TO.C,R22*%
X142929428Y-92431809D02*
X142760095Y-92189904D01*
X142639142Y-92431809D02*
X142639142Y-91923809D01*
X142832666Y-91923809D01*
X142881047Y-91948000D01*
X142905238Y-91972190D01*
X142929428Y-92020571D01*
X142929428Y-92093142D01*
X142905238Y-92141523D01*
X142881047Y-92165714D01*
X142832666Y-92189904D01*
X142639142Y-92189904D01*
X143122952Y-91972190D02*
X143147142Y-91948000D01*
X143195523Y-91923809D01*
X143316476Y-91923809D01*
X143364857Y-91948000D01*
X143389047Y-91972190D01*
X143413238Y-92020571D01*
X143413238Y-92068952D01*
X143389047Y-92141523D01*
X143098761Y-92431809D01*
X143413238Y-92431809D01*
X143606761Y-91972190D02*
X143630952Y-91948000D01*
X143679333Y-91923809D01*
X143800285Y-91923809D01*
X143848666Y-91948000D01*
X143872857Y-91972190D01*
X143897047Y-92020571D01*
X143897047Y-92068952D01*
X143872857Y-92141523D01*
X143582571Y-92431809D01*
X143897047Y-92431809D01*
%TO.C,R21*%
X164821809Y-84781571D02*
X164579904Y-84950904D01*
X164821809Y-85071857D02*
X164313809Y-85071857D01*
X164313809Y-84878333D01*
X164338000Y-84829952D01*
X164362190Y-84805761D01*
X164410571Y-84781571D01*
X164483142Y-84781571D01*
X164531523Y-84805761D01*
X164555714Y-84829952D01*
X164579904Y-84878333D01*
X164579904Y-85071857D01*
X164362190Y-84588047D02*
X164338000Y-84563857D01*
X164313809Y-84515476D01*
X164313809Y-84394523D01*
X164338000Y-84346142D01*
X164362190Y-84321952D01*
X164410571Y-84297761D01*
X164458952Y-84297761D01*
X164531523Y-84321952D01*
X164821809Y-84612238D01*
X164821809Y-84297761D01*
X164821809Y-83813952D02*
X164821809Y-84104238D01*
X164821809Y-83959095D02*
X164313809Y-83959095D01*
X164386380Y-84007476D01*
X164434761Y-84055857D01*
X164458952Y-84104238D01*
%TO.C,R20*%
X164059809Y-84781571D02*
X163817904Y-84950904D01*
X164059809Y-85071857D02*
X163551809Y-85071857D01*
X163551809Y-84878333D01*
X163576000Y-84829952D01*
X163600190Y-84805761D01*
X163648571Y-84781571D01*
X163721142Y-84781571D01*
X163769523Y-84805761D01*
X163793714Y-84829952D01*
X163817904Y-84878333D01*
X163817904Y-85071857D01*
X163600190Y-84588047D02*
X163576000Y-84563857D01*
X163551809Y-84515476D01*
X163551809Y-84394523D01*
X163576000Y-84346142D01*
X163600190Y-84321952D01*
X163648571Y-84297761D01*
X163696952Y-84297761D01*
X163769523Y-84321952D01*
X164059809Y-84612238D01*
X164059809Y-84297761D01*
X163551809Y-83983285D02*
X163551809Y-83934904D01*
X163576000Y-83886523D01*
X163600190Y-83862333D01*
X163648571Y-83838142D01*
X163745333Y-83813952D01*
X163866285Y-83813952D01*
X163963047Y-83838142D01*
X164011428Y-83862333D01*
X164035619Y-83886523D01*
X164059809Y-83934904D01*
X164059809Y-83983285D01*
X164035619Y-84031666D01*
X164011428Y-84055857D01*
X163963047Y-84080047D01*
X163866285Y-84104238D01*
X163745333Y-84104238D01*
X163648571Y-84080047D01*
X163600190Y-84055857D01*
X163576000Y-84031666D01*
X163551809Y-83983285D01*
%TO.C,R19*%
X140945809Y-90623571D02*
X140703904Y-90792904D01*
X140945809Y-90913857D02*
X140437809Y-90913857D01*
X140437809Y-90720333D01*
X140462000Y-90671952D01*
X140486190Y-90647761D01*
X140534571Y-90623571D01*
X140607142Y-90623571D01*
X140655523Y-90647761D01*
X140679714Y-90671952D01*
X140703904Y-90720333D01*
X140703904Y-90913857D01*
X140945809Y-90139761D02*
X140945809Y-90430047D01*
X140945809Y-90284904D02*
X140437809Y-90284904D01*
X140510380Y-90333285D01*
X140558761Y-90381666D01*
X140582952Y-90430047D01*
X140945809Y-89897857D02*
X140945809Y-89801095D01*
X140921619Y-89752714D01*
X140897428Y-89728523D01*
X140824857Y-89680142D01*
X140728095Y-89655952D01*
X140534571Y-89655952D01*
X140486190Y-89680142D01*
X140462000Y-89704333D01*
X140437809Y-89752714D01*
X140437809Y-89849476D01*
X140462000Y-89897857D01*
X140486190Y-89922047D01*
X140534571Y-89946238D01*
X140655523Y-89946238D01*
X140703904Y-89922047D01*
X140728095Y-89897857D01*
X140752285Y-89849476D01*
X140752285Y-89752714D01*
X140728095Y-89704333D01*
X140703904Y-89680142D01*
X140655523Y-89655952D01*
%TO.C,R18*%
X165027428Y-120244809D02*
X164858095Y-120002904D01*
X164737142Y-120244809D02*
X164737142Y-119736809D01*
X164930666Y-119736809D01*
X164979047Y-119761000D01*
X165003238Y-119785190D01*
X165027428Y-119833571D01*
X165027428Y-119906142D01*
X165003238Y-119954523D01*
X164979047Y-119978714D01*
X164930666Y-120002904D01*
X164737142Y-120002904D01*
X165511238Y-120244809D02*
X165220952Y-120244809D01*
X165366095Y-120244809D02*
X165366095Y-119736809D01*
X165317714Y-119809380D01*
X165269333Y-119857761D01*
X165220952Y-119881952D01*
X165801523Y-119954523D02*
X165753142Y-119930333D01*
X165728952Y-119906142D01*
X165704761Y-119857761D01*
X165704761Y-119833571D01*
X165728952Y-119785190D01*
X165753142Y-119761000D01*
X165801523Y-119736809D01*
X165898285Y-119736809D01*
X165946666Y-119761000D01*
X165970857Y-119785190D01*
X165995047Y-119833571D01*
X165995047Y-119857761D01*
X165970857Y-119906142D01*
X165946666Y-119930333D01*
X165898285Y-119954523D01*
X165801523Y-119954523D01*
X165753142Y-119978714D01*
X165728952Y-120002904D01*
X165704761Y-120051285D01*
X165704761Y-120148047D01*
X165728952Y-120196428D01*
X165753142Y-120220619D01*
X165801523Y-120244809D01*
X165898285Y-120244809D01*
X165946666Y-120220619D01*
X165970857Y-120196428D01*
X165995047Y-120148047D01*
X165995047Y-120051285D01*
X165970857Y-120002904D01*
X165946666Y-119978714D01*
X165898285Y-119954523D01*
%TO.C,R17*%
X167313428Y-120244809D02*
X167144095Y-120002904D01*
X167023142Y-120244809D02*
X167023142Y-119736809D01*
X167216666Y-119736809D01*
X167265047Y-119761000D01*
X167289238Y-119785190D01*
X167313428Y-119833571D01*
X167313428Y-119906142D01*
X167289238Y-119954523D01*
X167265047Y-119978714D01*
X167216666Y-120002904D01*
X167023142Y-120002904D01*
X167797238Y-120244809D02*
X167506952Y-120244809D01*
X167652095Y-120244809D02*
X167652095Y-119736809D01*
X167603714Y-119809380D01*
X167555333Y-119857761D01*
X167506952Y-119881952D01*
X167966571Y-119736809D02*
X168305238Y-119736809D01*
X168087523Y-120244809D01*
%TO.C,R16*%
X165027428Y-112878809D02*
X164858095Y-112636904D01*
X164737142Y-112878809D02*
X164737142Y-112370809D01*
X164930666Y-112370809D01*
X164979047Y-112395000D01*
X165003238Y-112419190D01*
X165027428Y-112467571D01*
X165027428Y-112540142D01*
X165003238Y-112588523D01*
X164979047Y-112612714D01*
X164930666Y-112636904D01*
X164737142Y-112636904D01*
X165511238Y-112878809D02*
X165220952Y-112878809D01*
X165366095Y-112878809D02*
X165366095Y-112370809D01*
X165317714Y-112443380D01*
X165269333Y-112491761D01*
X165220952Y-112515952D01*
X165946666Y-112370809D02*
X165849904Y-112370809D01*
X165801523Y-112395000D01*
X165777333Y-112419190D01*
X165728952Y-112491761D01*
X165704761Y-112588523D01*
X165704761Y-112782047D01*
X165728952Y-112830428D01*
X165753142Y-112854619D01*
X165801523Y-112878809D01*
X165898285Y-112878809D01*
X165946666Y-112854619D01*
X165970857Y-112830428D01*
X165995047Y-112782047D01*
X165995047Y-112661095D01*
X165970857Y-112612714D01*
X165946666Y-112588523D01*
X165898285Y-112564333D01*
X165801523Y-112564333D01*
X165753142Y-112588523D01*
X165728952Y-112612714D01*
X165704761Y-112661095D01*
%TO.C,R15*%
X167059428Y-112878809D02*
X166890095Y-112636904D01*
X166769142Y-112878809D02*
X166769142Y-112370809D01*
X166962666Y-112370809D01*
X167011047Y-112395000D01*
X167035238Y-112419190D01*
X167059428Y-112467571D01*
X167059428Y-112540142D01*
X167035238Y-112588523D01*
X167011047Y-112612714D01*
X166962666Y-112636904D01*
X166769142Y-112636904D01*
X167543238Y-112878809D02*
X167252952Y-112878809D01*
X167398095Y-112878809D02*
X167398095Y-112370809D01*
X167349714Y-112443380D01*
X167301333Y-112491761D01*
X167252952Y-112515952D01*
X168002857Y-112370809D02*
X167760952Y-112370809D01*
X167736761Y-112612714D01*
X167760952Y-112588523D01*
X167809333Y-112564333D01*
X167930285Y-112564333D01*
X167978666Y-112588523D01*
X168002857Y-112612714D01*
X168027047Y-112661095D01*
X168027047Y-112782047D01*
X168002857Y-112830428D01*
X167978666Y-112854619D01*
X167930285Y-112878809D01*
X167809333Y-112878809D01*
X167760952Y-112854619D01*
X167736761Y-112830428D01*
%TO.C,R14*%
X165027428Y-105766809D02*
X164858095Y-105524904D01*
X164737142Y-105766809D02*
X164737142Y-105258809D01*
X164930666Y-105258809D01*
X164979047Y-105283000D01*
X165003238Y-105307190D01*
X165027428Y-105355571D01*
X165027428Y-105428142D01*
X165003238Y-105476523D01*
X164979047Y-105500714D01*
X164930666Y-105524904D01*
X164737142Y-105524904D01*
X165511238Y-105766809D02*
X165220952Y-105766809D01*
X165366095Y-105766809D02*
X165366095Y-105258809D01*
X165317714Y-105331380D01*
X165269333Y-105379761D01*
X165220952Y-105403952D01*
X165946666Y-105428142D02*
X165946666Y-105766809D01*
X165825714Y-105234619D02*
X165704761Y-105597476D01*
X166019238Y-105597476D01*
%TO.C,R13*%
X167059428Y-105766809D02*
X166890095Y-105524904D01*
X166769142Y-105766809D02*
X166769142Y-105258809D01*
X166962666Y-105258809D01*
X167011047Y-105283000D01*
X167035238Y-105307190D01*
X167059428Y-105355571D01*
X167059428Y-105428142D01*
X167035238Y-105476523D01*
X167011047Y-105500714D01*
X166962666Y-105524904D01*
X166769142Y-105524904D01*
X167543238Y-105766809D02*
X167252952Y-105766809D01*
X167398095Y-105766809D02*
X167398095Y-105258809D01*
X167349714Y-105331380D01*
X167301333Y-105379761D01*
X167252952Y-105403952D01*
X167712571Y-105258809D02*
X168027047Y-105258809D01*
X167857714Y-105452333D01*
X167930285Y-105452333D01*
X167978666Y-105476523D01*
X168002857Y-105500714D01*
X168027047Y-105549095D01*
X168027047Y-105670047D01*
X168002857Y-105718428D01*
X167978666Y-105742619D01*
X167930285Y-105766809D01*
X167785142Y-105766809D01*
X167736761Y-105742619D01*
X167712571Y-105718428D01*
%TO.C,R12*%
X173711809Y-111451571D02*
X173469904Y-111620904D01*
X173711809Y-111741857D02*
X173203809Y-111741857D01*
X173203809Y-111548333D01*
X173228000Y-111499952D01*
X173252190Y-111475761D01*
X173300571Y-111451571D01*
X173373142Y-111451571D01*
X173421523Y-111475761D01*
X173445714Y-111499952D01*
X173469904Y-111548333D01*
X173469904Y-111741857D01*
X173711809Y-110967761D02*
X173711809Y-111258047D01*
X173711809Y-111112904D02*
X173203809Y-111112904D01*
X173276380Y-111161285D01*
X173324761Y-111209666D01*
X173348952Y-111258047D01*
X173252190Y-110774238D02*
X173228000Y-110750047D01*
X173203809Y-110701666D01*
X173203809Y-110580714D01*
X173228000Y-110532333D01*
X173252190Y-110508142D01*
X173300571Y-110483952D01*
X173348952Y-110483952D01*
X173421523Y-110508142D01*
X173711809Y-110798428D01*
X173711809Y-110483952D01*
%TO.C,R11*%
X178029809Y-111451571D02*
X177787904Y-111620904D01*
X178029809Y-111741857D02*
X177521809Y-111741857D01*
X177521809Y-111548333D01*
X177546000Y-111499952D01*
X177570190Y-111475761D01*
X177618571Y-111451571D01*
X177691142Y-111451571D01*
X177739523Y-111475761D01*
X177763714Y-111499952D01*
X177787904Y-111548333D01*
X177787904Y-111741857D01*
X178029809Y-110967761D02*
X178029809Y-111258047D01*
X178029809Y-111112904D02*
X177521809Y-111112904D01*
X177594380Y-111161285D01*
X177642761Y-111209666D01*
X177666952Y-111258047D01*
X178029809Y-110483952D02*
X178029809Y-110774238D01*
X178029809Y-110629095D02*
X177521809Y-110629095D01*
X177594380Y-110677476D01*
X177642761Y-110725857D01*
X177666952Y-110774238D01*
%TO.C,R10*%
X175949428Y-115926809D02*
X175780095Y-115684904D01*
X175659142Y-115926809D02*
X175659142Y-115418809D01*
X175852666Y-115418809D01*
X175901047Y-115443000D01*
X175925238Y-115467190D01*
X175949428Y-115515571D01*
X175949428Y-115588142D01*
X175925238Y-115636523D01*
X175901047Y-115660714D01*
X175852666Y-115684904D01*
X175659142Y-115684904D01*
X176433238Y-115926809D02*
X176142952Y-115926809D01*
X176288095Y-115926809D02*
X176288095Y-115418809D01*
X176239714Y-115491380D01*
X176191333Y-115539761D01*
X176142952Y-115563952D01*
X176747714Y-115418809D02*
X176796095Y-115418809D01*
X176844476Y-115443000D01*
X176868666Y-115467190D01*
X176892857Y-115515571D01*
X176917047Y-115612333D01*
X176917047Y-115733285D01*
X176892857Y-115830047D01*
X176868666Y-115878428D01*
X176844476Y-115902619D01*
X176796095Y-115926809D01*
X176747714Y-115926809D01*
X176699333Y-115902619D01*
X176675142Y-115878428D01*
X176650952Y-115830047D01*
X176626761Y-115733285D01*
X176626761Y-115612333D01*
X176650952Y-115515571D01*
X176675142Y-115467190D01*
X176699333Y-115443000D01*
X176747714Y-115418809D01*
%TO.C,JP4*%
X157201809Y-94530333D02*
X157564666Y-94530333D01*
X157637238Y-94554523D01*
X157685619Y-94602904D01*
X157709809Y-94675476D01*
X157709809Y-94723857D01*
X157709809Y-94288428D02*
X157201809Y-94288428D01*
X157201809Y-94094904D01*
X157226000Y-94046523D01*
X157250190Y-94022333D01*
X157298571Y-93998142D01*
X157371142Y-93998142D01*
X157419523Y-94022333D01*
X157443714Y-94046523D01*
X157467904Y-94094904D01*
X157467904Y-94288428D01*
X157371142Y-93562714D02*
X157709809Y-93562714D01*
X157177619Y-93683666D02*
X157540476Y-93804619D01*
X157540476Y-93490142D01*
%TO.C,JP3*%
X157201809Y-98340333D02*
X157564666Y-98340333D01*
X157637238Y-98364523D01*
X157685619Y-98412904D01*
X157709809Y-98485476D01*
X157709809Y-98533857D01*
X157709809Y-98098428D02*
X157201809Y-98098428D01*
X157201809Y-97904904D01*
X157226000Y-97856523D01*
X157250190Y-97832333D01*
X157298571Y-97808142D01*
X157371142Y-97808142D01*
X157419523Y-97832333D01*
X157443714Y-97856523D01*
X157467904Y-97904904D01*
X157467904Y-98098428D01*
X157201809Y-97638809D02*
X157201809Y-97324333D01*
X157395333Y-97493666D01*
X157395333Y-97421095D01*
X157419523Y-97372714D01*
X157443714Y-97348523D01*
X157492095Y-97324333D01*
X157613047Y-97324333D01*
X157661428Y-97348523D01*
X157685619Y-97372714D01*
X157709809Y-97421095D01*
X157709809Y-97566238D01*
X157685619Y-97614619D01*
X157661428Y-97638809D01*
%TO.C,JP2*%
X157201809Y-101642333D02*
X157564666Y-101642333D01*
X157637238Y-101666523D01*
X157685619Y-101714904D01*
X157709809Y-101787476D01*
X157709809Y-101835857D01*
X157709809Y-101400428D02*
X157201809Y-101400428D01*
X157201809Y-101206904D01*
X157226000Y-101158523D01*
X157250190Y-101134333D01*
X157298571Y-101110142D01*
X157371142Y-101110142D01*
X157419523Y-101134333D01*
X157443714Y-101158523D01*
X157467904Y-101206904D01*
X157467904Y-101400428D01*
X157250190Y-100916619D02*
X157226000Y-100892428D01*
X157201809Y-100844047D01*
X157201809Y-100723095D01*
X157226000Y-100674714D01*
X157250190Y-100650523D01*
X157298571Y-100626333D01*
X157346952Y-100626333D01*
X157419523Y-100650523D01*
X157709809Y-100940809D01*
X157709809Y-100626333D01*
%TO.C,C34*%
X149787428Y-84617571D02*
X149811619Y-84641761D01*
X149835809Y-84714333D01*
X149835809Y-84762714D01*
X149811619Y-84835285D01*
X149763238Y-84883666D01*
X149714857Y-84907857D01*
X149618095Y-84932047D01*
X149545523Y-84932047D01*
X149448761Y-84907857D01*
X149400380Y-84883666D01*
X149352000Y-84835285D01*
X149327809Y-84762714D01*
X149327809Y-84714333D01*
X149352000Y-84641761D01*
X149376190Y-84617571D01*
X149327809Y-84448238D02*
X149327809Y-84133761D01*
X149521333Y-84303095D01*
X149521333Y-84230523D01*
X149545523Y-84182142D01*
X149569714Y-84157952D01*
X149618095Y-84133761D01*
X149739047Y-84133761D01*
X149787428Y-84157952D01*
X149811619Y-84182142D01*
X149835809Y-84230523D01*
X149835809Y-84375666D01*
X149811619Y-84424047D01*
X149787428Y-84448238D01*
X149497142Y-83698333D02*
X149835809Y-83698333D01*
X149303619Y-83819285D02*
X149666476Y-83940238D01*
X149666476Y-83625761D01*
%TO.C,C33*%
X153343428Y-85398428D02*
X153319238Y-85422619D01*
X153246666Y-85446809D01*
X153198285Y-85446809D01*
X153125714Y-85422619D01*
X153077333Y-85374238D01*
X153053142Y-85325857D01*
X153028952Y-85229095D01*
X153028952Y-85156523D01*
X153053142Y-85059761D01*
X153077333Y-85011380D01*
X153125714Y-84963000D01*
X153198285Y-84938809D01*
X153246666Y-84938809D01*
X153319238Y-84963000D01*
X153343428Y-84987190D01*
X153512761Y-84938809D02*
X153827238Y-84938809D01*
X153657904Y-85132333D01*
X153730476Y-85132333D01*
X153778857Y-85156523D01*
X153803047Y-85180714D01*
X153827238Y-85229095D01*
X153827238Y-85350047D01*
X153803047Y-85398428D01*
X153778857Y-85422619D01*
X153730476Y-85446809D01*
X153585333Y-85446809D01*
X153536952Y-85422619D01*
X153512761Y-85398428D01*
X153996571Y-84938809D02*
X154311047Y-84938809D01*
X154141714Y-85132333D01*
X154214285Y-85132333D01*
X154262666Y-85156523D01*
X154286857Y-85180714D01*
X154311047Y-85229095D01*
X154311047Y-85350047D01*
X154286857Y-85398428D01*
X154262666Y-85422619D01*
X154214285Y-85446809D01*
X154069142Y-85446809D01*
X154020761Y-85422619D01*
X153996571Y-85398428D01*
%TO.C,C32*%
X175187428Y-105812428D02*
X175163238Y-105836619D01*
X175090666Y-105860809D01*
X175042285Y-105860809D01*
X174969714Y-105836619D01*
X174921333Y-105788238D01*
X174897142Y-105739857D01*
X174872952Y-105643095D01*
X174872952Y-105570523D01*
X174897142Y-105473761D01*
X174921333Y-105425380D01*
X174969714Y-105377000D01*
X175042285Y-105352809D01*
X175090666Y-105352809D01*
X175163238Y-105377000D01*
X175187428Y-105401190D01*
X175356761Y-105352809D02*
X175671238Y-105352809D01*
X175501904Y-105546333D01*
X175574476Y-105546333D01*
X175622857Y-105570523D01*
X175647047Y-105594714D01*
X175671238Y-105643095D01*
X175671238Y-105764047D01*
X175647047Y-105812428D01*
X175622857Y-105836619D01*
X175574476Y-105860809D01*
X175429333Y-105860809D01*
X175380952Y-105836619D01*
X175356761Y-105812428D01*
X175864761Y-105401190D02*
X175888952Y-105377000D01*
X175937333Y-105352809D01*
X176058285Y-105352809D01*
X176106666Y-105377000D01*
X176130857Y-105401190D01*
X176155047Y-105449571D01*
X176155047Y-105497952D01*
X176130857Y-105570523D01*
X175840571Y-105860809D01*
X176155047Y-105860809D01*
%TO.C,C31*%
X158677428Y-86813571D02*
X158701619Y-86837761D01*
X158725809Y-86910333D01*
X158725809Y-86958714D01*
X158701619Y-87031285D01*
X158653238Y-87079666D01*
X158604857Y-87103857D01*
X158508095Y-87128047D01*
X158435523Y-87128047D01*
X158338761Y-87103857D01*
X158290380Y-87079666D01*
X158242000Y-87031285D01*
X158217809Y-86958714D01*
X158217809Y-86910333D01*
X158242000Y-86837761D01*
X158266190Y-86813571D01*
X158217809Y-86644238D02*
X158217809Y-86329761D01*
X158411333Y-86499095D01*
X158411333Y-86426523D01*
X158435523Y-86378142D01*
X158459714Y-86353952D01*
X158508095Y-86329761D01*
X158629047Y-86329761D01*
X158677428Y-86353952D01*
X158701619Y-86378142D01*
X158725809Y-86426523D01*
X158725809Y-86571666D01*
X158701619Y-86620047D01*
X158677428Y-86644238D01*
X158725809Y-85845952D02*
X158725809Y-86136238D01*
X158725809Y-85991095D02*
X158217809Y-85991095D01*
X158290380Y-86039476D01*
X158338761Y-86087857D01*
X158362952Y-86136238D01*
%TO.C,C30*%
X166551428Y-92510428D02*
X166527238Y-92534619D01*
X166454666Y-92558809D01*
X166406285Y-92558809D01*
X166333714Y-92534619D01*
X166285333Y-92486238D01*
X166261142Y-92437857D01*
X166236952Y-92341095D01*
X166236952Y-92268523D01*
X166261142Y-92171761D01*
X166285333Y-92123380D01*
X166333714Y-92075000D01*
X166406285Y-92050809D01*
X166454666Y-92050809D01*
X166527238Y-92075000D01*
X166551428Y-92099190D01*
X166720761Y-92050809D02*
X167035238Y-92050809D01*
X166865904Y-92244333D01*
X166938476Y-92244333D01*
X166986857Y-92268523D01*
X167011047Y-92292714D01*
X167035238Y-92341095D01*
X167035238Y-92462047D01*
X167011047Y-92510428D01*
X166986857Y-92534619D01*
X166938476Y-92558809D01*
X166793333Y-92558809D01*
X166744952Y-92534619D01*
X166720761Y-92510428D01*
X167349714Y-92050809D02*
X167398095Y-92050809D01*
X167446476Y-92075000D01*
X167470666Y-92099190D01*
X167494857Y-92147571D01*
X167519047Y-92244333D01*
X167519047Y-92365285D01*
X167494857Y-92462047D01*
X167470666Y-92510428D01*
X167446476Y-92534619D01*
X167398095Y-92558809D01*
X167349714Y-92558809D01*
X167301333Y-92534619D01*
X167277142Y-92510428D01*
X167252952Y-92462047D01*
X167228761Y-92365285D01*
X167228761Y-92244333D01*
X167252952Y-92147571D01*
X167277142Y-92099190D01*
X167301333Y-92075000D01*
X167349714Y-92050809D01*
%TO.C,C29*%
X153089428Y-94687571D02*
X153113619Y-94711761D01*
X153137809Y-94784333D01*
X153137809Y-94832714D01*
X153113619Y-94905285D01*
X153065238Y-94953666D01*
X153016857Y-94977857D01*
X152920095Y-95002047D01*
X152847523Y-95002047D01*
X152750761Y-94977857D01*
X152702380Y-94953666D01*
X152654000Y-94905285D01*
X152629809Y-94832714D01*
X152629809Y-94784333D01*
X152654000Y-94711761D01*
X152678190Y-94687571D01*
X152678190Y-94494047D02*
X152654000Y-94469857D01*
X152629809Y-94421476D01*
X152629809Y-94300523D01*
X152654000Y-94252142D01*
X152678190Y-94227952D01*
X152726571Y-94203761D01*
X152774952Y-94203761D01*
X152847523Y-94227952D01*
X153137809Y-94518238D01*
X153137809Y-94203761D01*
X153137809Y-93961857D02*
X153137809Y-93865095D01*
X153113619Y-93816714D01*
X153089428Y-93792523D01*
X153016857Y-93744142D01*
X152920095Y-93719952D01*
X152726571Y-93719952D01*
X152678190Y-93744142D01*
X152654000Y-93768333D01*
X152629809Y-93816714D01*
X152629809Y-93913476D01*
X152654000Y-93961857D01*
X152678190Y-93986047D01*
X152726571Y-94010238D01*
X152847523Y-94010238D01*
X152895904Y-93986047D01*
X152920095Y-93961857D01*
X152944285Y-93913476D01*
X152944285Y-93816714D01*
X152920095Y-93768333D01*
X152895904Y-93744142D01*
X152847523Y-93719952D01*
%TO.C,C28*%
X175187428Y-107336428D02*
X175163238Y-107360619D01*
X175090666Y-107384809D01*
X175042285Y-107384809D01*
X174969714Y-107360619D01*
X174921333Y-107312238D01*
X174897142Y-107263857D01*
X174872952Y-107167095D01*
X174872952Y-107094523D01*
X174897142Y-106997761D01*
X174921333Y-106949380D01*
X174969714Y-106901000D01*
X175042285Y-106876809D01*
X175090666Y-106876809D01*
X175163238Y-106901000D01*
X175187428Y-106925190D01*
X175380952Y-106925190D02*
X175405142Y-106901000D01*
X175453523Y-106876809D01*
X175574476Y-106876809D01*
X175622857Y-106901000D01*
X175647047Y-106925190D01*
X175671238Y-106973571D01*
X175671238Y-107021952D01*
X175647047Y-107094523D01*
X175356761Y-107384809D01*
X175671238Y-107384809D01*
X175961523Y-107094523D02*
X175913142Y-107070333D01*
X175888952Y-107046142D01*
X175864761Y-106997761D01*
X175864761Y-106973571D01*
X175888952Y-106925190D01*
X175913142Y-106901000D01*
X175961523Y-106876809D01*
X176058285Y-106876809D01*
X176106666Y-106901000D01*
X176130857Y-106925190D01*
X176155047Y-106973571D01*
X176155047Y-106997761D01*
X176130857Y-107046142D01*
X176106666Y-107070333D01*
X176058285Y-107094523D01*
X175961523Y-107094523D01*
X175913142Y-107118714D01*
X175888952Y-107142904D01*
X175864761Y-107191285D01*
X175864761Y-107288047D01*
X175888952Y-107336428D01*
X175913142Y-107360619D01*
X175961523Y-107384809D01*
X176058285Y-107384809D01*
X176106666Y-107360619D01*
X176130857Y-107336428D01*
X176155047Y-107288047D01*
X176155047Y-107191285D01*
X176130857Y-107142904D01*
X176106666Y-107118714D01*
X176058285Y-107094523D01*
%TO.C,C27*%
X163757428Y-113846428D02*
X163733238Y-113870619D01*
X163660666Y-113894809D01*
X163612285Y-113894809D01*
X163539714Y-113870619D01*
X163491333Y-113822238D01*
X163467142Y-113773857D01*
X163442952Y-113677095D01*
X163442952Y-113604523D01*
X163467142Y-113507761D01*
X163491333Y-113459380D01*
X163539714Y-113411000D01*
X163612285Y-113386809D01*
X163660666Y-113386809D01*
X163733238Y-113411000D01*
X163757428Y-113435190D01*
X163950952Y-113435190D02*
X163975142Y-113411000D01*
X164023523Y-113386809D01*
X164144476Y-113386809D01*
X164192857Y-113411000D01*
X164217047Y-113435190D01*
X164241238Y-113483571D01*
X164241238Y-113531952D01*
X164217047Y-113604523D01*
X163926761Y-113894809D01*
X164241238Y-113894809D01*
X164410571Y-113386809D02*
X164749238Y-113386809D01*
X164531523Y-113894809D01*
%TO.C,C26*%
X163757428Y-106734428D02*
X163733238Y-106758619D01*
X163660666Y-106782809D01*
X163612285Y-106782809D01*
X163539714Y-106758619D01*
X163491333Y-106710238D01*
X163467142Y-106661857D01*
X163442952Y-106565095D01*
X163442952Y-106492523D01*
X163467142Y-106395761D01*
X163491333Y-106347380D01*
X163539714Y-106299000D01*
X163612285Y-106274809D01*
X163660666Y-106274809D01*
X163733238Y-106299000D01*
X163757428Y-106323190D01*
X163950952Y-106323190D02*
X163975142Y-106299000D01*
X164023523Y-106274809D01*
X164144476Y-106274809D01*
X164192857Y-106299000D01*
X164217047Y-106323190D01*
X164241238Y-106371571D01*
X164241238Y-106419952D01*
X164217047Y-106492523D01*
X163926761Y-106782809D01*
X164241238Y-106782809D01*
X164676666Y-106274809D02*
X164579904Y-106274809D01*
X164531523Y-106299000D01*
X164507333Y-106323190D01*
X164458952Y-106395761D01*
X164434761Y-106492523D01*
X164434761Y-106686047D01*
X164458952Y-106734428D01*
X164483142Y-106758619D01*
X164531523Y-106782809D01*
X164628285Y-106782809D01*
X164676666Y-106758619D01*
X164700857Y-106734428D01*
X164725047Y-106686047D01*
X164725047Y-106565095D01*
X164700857Y-106516714D01*
X164676666Y-106492523D01*
X164628285Y-106468333D01*
X164531523Y-106468333D01*
X164483142Y-106492523D01*
X164458952Y-106516714D01*
X164434761Y-106565095D01*
%TO.C,C25*%
X164773428Y-99767571D02*
X164797619Y-99791761D01*
X164821809Y-99864333D01*
X164821809Y-99912714D01*
X164797619Y-99985285D01*
X164749238Y-100033666D01*
X164700857Y-100057857D01*
X164604095Y-100082047D01*
X164531523Y-100082047D01*
X164434761Y-100057857D01*
X164386380Y-100033666D01*
X164338000Y-99985285D01*
X164313809Y-99912714D01*
X164313809Y-99864333D01*
X164338000Y-99791761D01*
X164362190Y-99767571D01*
X164362190Y-99574047D02*
X164338000Y-99549857D01*
X164313809Y-99501476D01*
X164313809Y-99380523D01*
X164338000Y-99332142D01*
X164362190Y-99307952D01*
X164410571Y-99283761D01*
X164458952Y-99283761D01*
X164531523Y-99307952D01*
X164821809Y-99598238D01*
X164821809Y-99283761D01*
X164313809Y-98824142D02*
X164313809Y-99066047D01*
X164555714Y-99090238D01*
X164531523Y-99066047D01*
X164507333Y-99017666D01*
X164507333Y-98896714D01*
X164531523Y-98848333D01*
X164555714Y-98824142D01*
X164604095Y-98799952D01*
X164725047Y-98799952D01*
X164773428Y-98824142D01*
X164797619Y-98848333D01*
X164821809Y-98896714D01*
X164821809Y-99017666D01*
X164797619Y-99066047D01*
X164773428Y-99090238D01*
%TO.C,C23*%
X161725428Y-81334428D02*
X161701238Y-81358619D01*
X161628666Y-81382809D01*
X161580285Y-81382809D01*
X161507714Y-81358619D01*
X161459333Y-81310238D01*
X161435142Y-81261857D01*
X161410952Y-81165095D01*
X161410952Y-81092523D01*
X161435142Y-80995761D01*
X161459333Y-80947380D01*
X161507714Y-80899000D01*
X161580285Y-80874809D01*
X161628666Y-80874809D01*
X161701238Y-80899000D01*
X161725428Y-80923190D01*
X161918952Y-80923190D02*
X161943142Y-80899000D01*
X161991523Y-80874809D01*
X162112476Y-80874809D01*
X162160857Y-80899000D01*
X162185047Y-80923190D01*
X162209238Y-80971571D01*
X162209238Y-81019952D01*
X162185047Y-81092523D01*
X161894761Y-81382809D01*
X162209238Y-81382809D01*
X162378571Y-80874809D02*
X162693047Y-80874809D01*
X162523714Y-81068333D01*
X162596285Y-81068333D01*
X162644666Y-81092523D01*
X162668857Y-81116714D01*
X162693047Y-81165095D01*
X162693047Y-81286047D01*
X162668857Y-81334428D01*
X162644666Y-81358619D01*
X162596285Y-81382809D01*
X162451142Y-81382809D01*
X162402761Y-81358619D01*
X162378571Y-81334428D01*
%TO.C,C22*%
X149533428Y-90224428D02*
X149509238Y-90248619D01*
X149436666Y-90272809D01*
X149388285Y-90272809D01*
X149315714Y-90248619D01*
X149267333Y-90200238D01*
X149243142Y-90151857D01*
X149218952Y-90055095D01*
X149218952Y-89982523D01*
X149243142Y-89885761D01*
X149267333Y-89837380D01*
X149315714Y-89789000D01*
X149388285Y-89764809D01*
X149436666Y-89764809D01*
X149509238Y-89789000D01*
X149533428Y-89813190D01*
X149726952Y-89813190D02*
X149751142Y-89789000D01*
X149799523Y-89764809D01*
X149920476Y-89764809D01*
X149968857Y-89789000D01*
X149993047Y-89813190D01*
X150017238Y-89861571D01*
X150017238Y-89909952D01*
X149993047Y-89982523D01*
X149702761Y-90272809D01*
X150017238Y-90272809D01*
X150210761Y-89813190D02*
X150234952Y-89789000D01*
X150283333Y-89764809D01*
X150404285Y-89764809D01*
X150452666Y-89789000D01*
X150476857Y-89813190D01*
X150501047Y-89861571D01*
X150501047Y-89909952D01*
X150476857Y-89982523D01*
X150186571Y-90272809D01*
X150501047Y-90272809D01*
%TO.C,C17*%
X162995428Y-95812428D02*
X162971238Y-95836619D01*
X162898666Y-95860809D01*
X162850285Y-95860809D01*
X162777714Y-95836619D01*
X162729333Y-95788238D01*
X162705142Y-95739857D01*
X162680952Y-95643095D01*
X162680952Y-95570523D01*
X162705142Y-95473761D01*
X162729333Y-95425380D01*
X162777714Y-95377000D01*
X162850285Y-95352809D01*
X162898666Y-95352809D01*
X162971238Y-95377000D01*
X162995428Y-95401190D01*
X163479238Y-95860809D02*
X163188952Y-95860809D01*
X163334095Y-95860809D02*
X163334095Y-95352809D01*
X163285714Y-95425380D01*
X163237333Y-95473761D01*
X163188952Y-95497952D01*
X163648571Y-95352809D02*
X163987238Y-95352809D01*
X163769523Y-95860809D01*
%TO.C,C12*%
X163757428Y-115370428D02*
X163733238Y-115394619D01*
X163660666Y-115418809D01*
X163612285Y-115418809D01*
X163539714Y-115394619D01*
X163491333Y-115346238D01*
X163467142Y-115297857D01*
X163442952Y-115201095D01*
X163442952Y-115128523D01*
X163467142Y-115031761D01*
X163491333Y-114983380D01*
X163539714Y-114935000D01*
X163612285Y-114910809D01*
X163660666Y-114910809D01*
X163733238Y-114935000D01*
X163757428Y-114959190D01*
X164241238Y-115418809D02*
X163950952Y-115418809D01*
X164096095Y-115418809D02*
X164096095Y-114910809D01*
X164047714Y-114983380D01*
X163999333Y-115031761D01*
X163950952Y-115055952D01*
X164434761Y-114959190D02*
X164458952Y-114935000D01*
X164507333Y-114910809D01*
X164628285Y-114910809D01*
X164676666Y-114935000D01*
X164700857Y-114959190D01*
X164725047Y-115007571D01*
X164725047Y-115055952D01*
X164700857Y-115128523D01*
X164410571Y-115418809D01*
X164725047Y-115418809D01*
%TO.C,U5*%
X120951809Y-97542047D02*
X121363047Y-97542047D01*
X121411428Y-97517857D01*
X121435619Y-97493666D01*
X121459809Y-97445285D01*
X121459809Y-97348523D01*
X121435619Y-97300142D01*
X121411428Y-97275952D01*
X121363047Y-97251761D01*
X120951809Y-97251761D01*
X120951809Y-96767952D02*
X120951809Y-97009857D01*
X121193714Y-97034047D01*
X121169523Y-97009857D01*
X121145333Y-96961476D01*
X121145333Y-96840523D01*
X121169523Y-96792142D01*
X121193714Y-96767952D01*
X121242095Y-96743761D01*
X121363047Y-96743761D01*
X121411428Y-96767952D01*
X121435619Y-96792142D01*
X121459809Y-96840523D01*
X121459809Y-96961476D01*
X121435619Y-97009857D01*
X121411428Y-97034047D01*
%TO.C,U1*%
X143122952Y-116616809D02*
X143122952Y-117028047D01*
X143147142Y-117076428D01*
X143171333Y-117100619D01*
X143219714Y-117124809D01*
X143316476Y-117124809D01*
X143364857Y-117100619D01*
X143389047Y-117076428D01*
X143413238Y-117028047D01*
X143413238Y-116616809D01*
X143921238Y-117124809D02*
X143630952Y-117124809D01*
X143776095Y-117124809D02*
X143776095Y-116616809D01*
X143727714Y-116689380D01*
X143679333Y-116737761D01*
X143630952Y-116761952D01*
%TO.C,Q3*%
X131015619Y-94639190D02*
X130967238Y-94615000D01*
X130918857Y-94566619D01*
X130846285Y-94494047D01*
X130797904Y-94469857D01*
X130749523Y-94469857D01*
X130773714Y-94590809D02*
X130725333Y-94566619D01*
X130676952Y-94518238D01*
X130652761Y-94421476D01*
X130652761Y-94252142D01*
X130676952Y-94155380D01*
X130725333Y-94107000D01*
X130773714Y-94082809D01*
X130870476Y-94082809D01*
X130918857Y-94107000D01*
X130967238Y-94155380D01*
X130991428Y-94252142D01*
X130991428Y-94421476D01*
X130967238Y-94518238D01*
X130918857Y-94566619D01*
X130870476Y-94590809D01*
X130773714Y-94590809D01*
X131160761Y-94082809D02*
X131475238Y-94082809D01*
X131305904Y-94276333D01*
X131378476Y-94276333D01*
X131426857Y-94300523D01*
X131451047Y-94324714D01*
X131475238Y-94373095D01*
X131475238Y-94494047D01*
X131451047Y-94542428D01*
X131426857Y-94566619D01*
X131378476Y-94590809D01*
X131233333Y-94590809D01*
X131184952Y-94566619D01*
X131160761Y-94542428D01*
%TO.C,FB2*%
X153379714Y-104436333D02*
X153379714Y-104605666D01*
X153645809Y-104605666D02*
X153137809Y-104605666D01*
X153137809Y-104363761D01*
X153379714Y-104000904D02*
X153403904Y-103928333D01*
X153428095Y-103904142D01*
X153476476Y-103879952D01*
X153549047Y-103879952D01*
X153597428Y-103904142D01*
X153621619Y-103928333D01*
X153645809Y-103976714D01*
X153645809Y-104170238D01*
X153137809Y-104170238D01*
X153137809Y-104000904D01*
X153162000Y-103952523D01*
X153186190Y-103928333D01*
X153234571Y-103904142D01*
X153282952Y-103904142D01*
X153331333Y-103928333D01*
X153355523Y-103952523D01*
X153379714Y-104000904D01*
X153379714Y-104170238D01*
X153186190Y-103686428D02*
X153162000Y-103662238D01*
X153137809Y-103613857D01*
X153137809Y-103492904D01*
X153162000Y-103444523D01*
X153186190Y-103420333D01*
X153234571Y-103396142D01*
X153282952Y-103396142D01*
X153355523Y-103420333D01*
X153645809Y-103710619D01*
X153645809Y-103396142D01*
%TO.C,FB1*%
X118327714Y-92244333D02*
X118327714Y-92413666D01*
X118593809Y-92413666D02*
X118085809Y-92413666D01*
X118085809Y-92171761D01*
X118327714Y-91808904D02*
X118351904Y-91736333D01*
X118376095Y-91712142D01*
X118424476Y-91687952D01*
X118497047Y-91687952D01*
X118545428Y-91712142D01*
X118569619Y-91736333D01*
X118593809Y-91784714D01*
X118593809Y-91978238D01*
X118085809Y-91978238D01*
X118085809Y-91808904D01*
X118110000Y-91760523D01*
X118134190Y-91736333D01*
X118182571Y-91712142D01*
X118230952Y-91712142D01*
X118279333Y-91736333D01*
X118303523Y-91760523D01*
X118327714Y-91808904D01*
X118327714Y-91978238D01*
X118593809Y-91204142D02*
X118593809Y-91494428D01*
X118593809Y-91349285D02*
X118085809Y-91349285D01*
X118158380Y-91397666D01*
X118206761Y-91446047D01*
X118230952Y-91494428D01*
%TO.C,C15*%
X132007428Y-102561571D02*
X132031619Y-102585761D01*
X132055809Y-102658333D01*
X132055809Y-102706714D01*
X132031619Y-102779285D01*
X131983238Y-102827666D01*
X131934857Y-102851857D01*
X131838095Y-102876047D01*
X131765523Y-102876047D01*
X131668761Y-102851857D01*
X131620380Y-102827666D01*
X131572000Y-102779285D01*
X131547809Y-102706714D01*
X131547809Y-102658333D01*
X131572000Y-102585761D01*
X131596190Y-102561571D01*
X132055809Y-102077761D02*
X132055809Y-102368047D01*
X132055809Y-102222904D02*
X131547809Y-102222904D01*
X131620380Y-102271285D01*
X131668761Y-102319666D01*
X131692952Y-102368047D01*
X131547809Y-101618142D02*
X131547809Y-101860047D01*
X131789714Y-101884238D01*
X131765523Y-101860047D01*
X131741333Y-101811666D01*
X131741333Y-101690714D01*
X131765523Y-101642333D01*
X131789714Y-101618142D01*
X131838095Y-101593952D01*
X131959047Y-101593952D01*
X132007428Y-101618142D01*
X132031619Y-101642333D01*
X132055809Y-101690714D01*
X132055809Y-101811666D01*
X132031619Y-101860047D01*
X132007428Y-101884238D01*
%TO.C,C14*%
X126927428Y-105210428D02*
X126903238Y-105234619D01*
X126830666Y-105258809D01*
X126782285Y-105258809D01*
X126709714Y-105234619D01*
X126661333Y-105186238D01*
X126637142Y-105137857D01*
X126612952Y-105041095D01*
X126612952Y-104968523D01*
X126637142Y-104871761D01*
X126661333Y-104823380D01*
X126709714Y-104775000D01*
X126782285Y-104750809D01*
X126830666Y-104750809D01*
X126903238Y-104775000D01*
X126927428Y-104799190D01*
X127411238Y-105258809D02*
X127120952Y-105258809D01*
X127266095Y-105258809D02*
X127266095Y-104750809D01*
X127217714Y-104823380D01*
X127169333Y-104871761D01*
X127120952Y-104895952D01*
X127846666Y-104920142D02*
X127846666Y-105258809D01*
X127725714Y-104726619D02*
X127604761Y-105089476D01*
X127919238Y-105089476D01*
%TO.C,C13*%
X123879428Y-105210428D02*
X123855238Y-105234619D01*
X123782666Y-105258809D01*
X123734285Y-105258809D01*
X123661714Y-105234619D01*
X123613333Y-105186238D01*
X123589142Y-105137857D01*
X123564952Y-105041095D01*
X123564952Y-104968523D01*
X123589142Y-104871761D01*
X123613333Y-104823380D01*
X123661714Y-104775000D01*
X123734285Y-104750809D01*
X123782666Y-104750809D01*
X123855238Y-104775000D01*
X123879428Y-104799190D01*
X124363238Y-105258809D02*
X124072952Y-105258809D01*
X124218095Y-105258809D02*
X124218095Y-104750809D01*
X124169714Y-104823380D01*
X124121333Y-104871761D01*
X124072952Y-104895952D01*
X124532571Y-104750809D02*
X124847047Y-104750809D01*
X124677714Y-104944333D01*
X124750285Y-104944333D01*
X124798666Y-104968523D01*
X124822857Y-104992714D01*
X124847047Y-105041095D01*
X124847047Y-105162047D01*
X124822857Y-105210428D01*
X124798666Y-105234619D01*
X124750285Y-105258809D01*
X124605142Y-105258809D01*
X124556761Y-105234619D01*
X124532571Y-105210428D01*
%TO.C,C9*%
X157915428Y-104097666D02*
X157939619Y-104121857D01*
X157963809Y-104194428D01*
X157963809Y-104242809D01*
X157939619Y-104315380D01*
X157891238Y-104363761D01*
X157842857Y-104387952D01*
X157746095Y-104412142D01*
X157673523Y-104412142D01*
X157576761Y-104387952D01*
X157528380Y-104363761D01*
X157480000Y-104315380D01*
X157455809Y-104242809D01*
X157455809Y-104194428D01*
X157480000Y-104121857D01*
X157504190Y-104097666D01*
X157963809Y-103855761D02*
X157963809Y-103759000D01*
X157939619Y-103710619D01*
X157915428Y-103686428D01*
X157842857Y-103638047D01*
X157746095Y-103613857D01*
X157552571Y-103613857D01*
X157504190Y-103638047D01*
X157480000Y-103662238D01*
X157455809Y-103710619D01*
X157455809Y-103807380D01*
X157480000Y-103855761D01*
X157504190Y-103879952D01*
X157552571Y-103904142D01*
X157673523Y-103904142D01*
X157721904Y-103879952D01*
X157746095Y-103855761D01*
X157770285Y-103807380D01*
X157770285Y-103710619D01*
X157746095Y-103662238D01*
X157721904Y-103638047D01*
X157673523Y-103613857D01*
%TO.C,C6*%
X146473333Y-104702428D02*
X146449142Y-104726619D01*
X146376571Y-104750809D01*
X146328190Y-104750809D01*
X146255619Y-104726619D01*
X146207238Y-104678238D01*
X146183047Y-104629857D01*
X146158857Y-104533095D01*
X146158857Y-104460523D01*
X146183047Y-104363761D01*
X146207238Y-104315380D01*
X146255619Y-104267000D01*
X146328190Y-104242809D01*
X146376571Y-104242809D01*
X146449142Y-104267000D01*
X146473333Y-104291190D01*
X146908761Y-104242809D02*
X146812000Y-104242809D01*
X146763619Y-104267000D01*
X146739428Y-104291190D01*
X146691047Y-104363761D01*
X146666857Y-104460523D01*
X146666857Y-104654047D01*
X146691047Y-104702428D01*
X146715238Y-104726619D01*
X146763619Y-104750809D01*
X146860380Y-104750809D01*
X146908761Y-104726619D01*
X146932952Y-104702428D01*
X146957142Y-104654047D01*
X146957142Y-104533095D01*
X146932952Y-104484714D01*
X146908761Y-104460523D01*
X146860380Y-104436333D01*
X146763619Y-104436333D01*
X146715238Y-104460523D01*
X146691047Y-104484714D01*
X146666857Y-104533095D01*
%TO.C,C5*%
X118533333Y-85398428D02*
X118509142Y-85422619D01*
X118436571Y-85446809D01*
X118388190Y-85446809D01*
X118315619Y-85422619D01*
X118267238Y-85374238D01*
X118243047Y-85325857D01*
X118218857Y-85229095D01*
X118218857Y-85156523D01*
X118243047Y-85059761D01*
X118267238Y-85011380D01*
X118315619Y-84963000D01*
X118388190Y-84938809D01*
X118436571Y-84938809D01*
X118509142Y-84963000D01*
X118533333Y-84987190D01*
X118992952Y-84938809D02*
X118751047Y-84938809D01*
X118726857Y-85180714D01*
X118751047Y-85156523D01*
X118799428Y-85132333D01*
X118920380Y-85132333D01*
X118968761Y-85156523D01*
X118992952Y-85180714D01*
X119017142Y-85229095D01*
X119017142Y-85350047D01*
X118992952Y-85398428D01*
X118968761Y-85422619D01*
X118920380Y-85446809D01*
X118799428Y-85446809D01*
X118751047Y-85422619D01*
X118726857Y-85398428D01*
%TO.C,C4*%
X144695333Y-108258428D02*
X144671142Y-108282619D01*
X144598571Y-108306809D01*
X144550190Y-108306809D01*
X144477619Y-108282619D01*
X144429238Y-108234238D01*
X144405047Y-108185857D01*
X144380857Y-108089095D01*
X144380857Y-108016523D01*
X144405047Y-107919761D01*
X144429238Y-107871380D01*
X144477619Y-107823000D01*
X144550190Y-107798809D01*
X144598571Y-107798809D01*
X144671142Y-107823000D01*
X144695333Y-107847190D01*
X145130761Y-107968142D02*
X145130761Y-108306809D01*
X145009809Y-107774619D02*
X144888857Y-108137476D01*
X145203333Y-108137476D01*
%TO.C,C3*%
X118533333Y-90224428D02*
X118509142Y-90248619D01*
X118436571Y-90272809D01*
X118388190Y-90272809D01*
X118315619Y-90248619D01*
X118267238Y-90200238D01*
X118243047Y-90151857D01*
X118218857Y-90055095D01*
X118218857Y-89982523D01*
X118243047Y-89885761D01*
X118267238Y-89837380D01*
X118315619Y-89789000D01*
X118388190Y-89764809D01*
X118436571Y-89764809D01*
X118509142Y-89789000D01*
X118533333Y-89813190D01*
X118702666Y-89764809D02*
X119017142Y-89764809D01*
X118847809Y-89958333D01*
X118920380Y-89958333D01*
X118968761Y-89982523D01*
X118992952Y-90006714D01*
X119017142Y-90055095D01*
X119017142Y-90176047D01*
X118992952Y-90224428D01*
X118968761Y-90248619D01*
X118920380Y-90272809D01*
X118775238Y-90272809D01*
X118726857Y-90248619D01*
X118702666Y-90224428D01*
%TO.C,C2*%
X146727333Y-118578428D02*
X146703142Y-118602619D01*
X146630571Y-118626809D01*
X146582190Y-118626809D01*
X146509619Y-118602619D01*
X146461238Y-118554238D01*
X146437047Y-118505857D01*
X146412857Y-118409095D01*
X146412857Y-118336523D01*
X146437047Y-118239761D01*
X146461238Y-118191380D01*
X146509619Y-118143000D01*
X146582190Y-118118809D01*
X146630571Y-118118809D01*
X146703142Y-118143000D01*
X146727333Y-118167190D01*
X146920857Y-118167190D02*
X146945047Y-118143000D01*
X146993428Y-118118809D01*
X147114380Y-118118809D01*
X147162761Y-118143000D01*
X147186952Y-118167190D01*
X147211142Y-118215571D01*
X147211142Y-118263952D01*
X147186952Y-118336523D01*
X146896666Y-118626809D01*
X147211142Y-118626809D01*
%TO.C,C1*%
X158931428Y-112225666D02*
X158955619Y-112249857D01*
X158979809Y-112322428D01*
X158979809Y-112370809D01*
X158955619Y-112443380D01*
X158907238Y-112491761D01*
X158858857Y-112515952D01*
X158762095Y-112540142D01*
X158689523Y-112540142D01*
X158592761Y-112515952D01*
X158544380Y-112491761D01*
X158496000Y-112443380D01*
X158471809Y-112370809D01*
X158471809Y-112322428D01*
X158496000Y-112249857D01*
X158520190Y-112225666D01*
X158979809Y-111741857D02*
X158979809Y-112032142D01*
X158979809Y-111887000D02*
X158471809Y-111887000D01*
X158544380Y-111935380D01*
X158592761Y-111983761D01*
X158616952Y-112032142D01*
%TO.C,C10*%
X152327428Y-94687571D02*
X152351619Y-94711761D01*
X152375809Y-94784333D01*
X152375809Y-94832714D01*
X152351619Y-94905285D01*
X152303238Y-94953666D01*
X152254857Y-94977857D01*
X152158095Y-95002047D01*
X152085523Y-95002047D01*
X151988761Y-94977857D01*
X151940380Y-94953666D01*
X151892000Y-94905285D01*
X151867809Y-94832714D01*
X151867809Y-94784333D01*
X151892000Y-94711761D01*
X151916190Y-94687571D01*
X152375809Y-94203761D02*
X152375809Y-94494047D01*
X152375809Y-94348904D02*
X151867809Y-94348904D01*
X151940380Y-94397285D01*
X151988761Y-94445666D01*
X152012952Y-94494047D01*
X151867809Y-93889285D02*
X151867809Y-93840904D01*
X151892000Y-93792523D01*
X151916190Y-93768333D01*
X151964571Y-93744142D01*
X152061333Y-93719952D01*
X152182285Y-93719952D01*
X152279047Y-93744142D01*
X152327428Y-93768333D01*
X152351619Y-93792523D01*
X152375809Y-93840904D01*
X152375809Y-93889285D01*
X152351619Y-93937666D01*
X152327428Y-93961857D01*
X152279047Y-93986047D01*
X152182285Y-94010238D01*
X152061333Y-94010238D01*
X151964571Y-93986047D01*
X151916190Y-93961857D01*
X151892000Y-93937666D01*
X151867809Y-93889285D01*
%TO.C,U6*%
X139929809Y-95510047D02*
X140341047Y-95510047D01*
X140389428Y-95485857D01*
X140413619Y-95461666D01*
X140437809Y-95413285D01*
X140437809Y-95316523D01*
X140413619Y-95268142D01*
X140389428Y-95243952D01*
X140341047Y-95219761D01*
X139929809Y-95219761D01*
X139929809Y-94760142D02*
X139929809Y-94856904D01*
X139954000Y-94905285D01*
X139978190Y-94929476D01*
X140050761Y-94977857D01*
X140147523Y-95002047D01*
X140341047Y-95002047D01*
X140389428Y-94977857D01*
X140413619Y-94953666D01*
X140437809Y-94905285D01*
X140437809Y-94808523D01*
X140413619Y-94760142D01*
X140389428Y-94735952D01*
X140341047Y-94711761D01*
X140220095Y-94711761D01*
X140171714Y-94735952D01*
X140147523Y-94760142D01*
X140123333Y-94808523D01*
X140123333Y-94905285D01*
X140147523Y-94953666D01*
X140171714Y-94977857D01*
X140220095Y-95002047D01*
%TO.C,FB3*%
X152230666Y-96356714D02*
X152061333Y-96356714D01*
X152061333Y-96622809D02*
X152061333Y-96114809D01*
X152303238Y-96114809D01*
X152666095Y-96356714D02*
X152738666Y-96380904D01*
X152762857Y-96405095D01*
X152787047Y-96453476D01*
X152787047Y-96526047D01*
X152762857Y-96574428D01*
X152738666Y-96598619D01*
X152690285Y-96622809D01*
X152496761Y-96622809D01*
X152496761Y-96114809D01*
X152666095Y-96114809D01*
X152714476Y-96139000D01*
X152738666Y-96163190D01*
X152762857Y-96211571D01*
X152762857Y-96259952D01*
X152738666Y-96308333D01*
X152714476Y-96332523D01*
X152666095Y-96356714D01*
X152496761Y-96356714D01*
X152956380Y-96114809D02*
X153270857Y-96114809D01*
X153101523Y-96308333D01*
X153174095Y-96308333D01*
X153222476Y-96332523D01*
X153246666Y-96356714D01*
X153270857Y-96405095D01*
X153270857Y-96526047D01*
X153246666Y-96574428D01*
X153222476Y-96598619D01*
X153174095Y-96622809D01*
X153028952Y-96622809D01*
X152980571Y-96598619D01*
X152956380Y-96574428D01*
%TO.C,U4*%
X154552952Y-83414809D02*
X154552952Y-83826047D01*
X154577142Y-83874428D01*
X154601333Y-83898619D01*
X154649714Y-83922809D01*
X154746476Y-83922809D01*
X154794857Y-83898619D01*
X154819047Y-83874428D01*
X154843238Y-83826047D01*
X154843238Y-83414809D01*
X155302857Y-83584142D02*
X155302857Y-83922809D01*
X155181904Y-83390619D02*
X155060952Y-83753476D01*
X155375428Y-83753476D01*
%TO.C,J1*%
X168459809Y-99994333D02*
X168822666Y-99994333D01*
X168895238Y-100018523D01*
X168943619Y-100066904D01*
X168967809Y-100139476D01*
X168967809Y-100187857D01*
X168967809Y-99486333D02*
X168967809Y-99776619D01*
X168967809Y-99631476D02*
X168459809Y-99631476D01*
X168532380Y-99679857D01*
X168580761Y-99728238D01*
X168604952Y-99776619D01*
%TO.C,U3*%
X146170952Y-92050809D02*
X146170952Y-92462047D01*
X146195142Y-92510428D01*
X146219333Y-92534619D01*
X146267714Y-92558809D01*
X146364476Y-92558809D01*
X146412857Y-92534619D01*
X146437047Y-92510428D01*
X146461238Y-92462047D01*
X146461238Y-92050809D01*
X146654761Y-92050809D02*
X146969238Y-92050809D01*
X146799904Y-92244333D01*
X146872476Y-92244333D01*
X146920857Y-92268523D01*
X146945047Y-92292714D01*
X146969238Y-92341095D01*
X146969238Y-92462047D01*
X146945047Y-92510428D01*
X146920857Y-92534619D01*
X146872476Y-92558809D01*
X146727333Y-92558809D01*
X146678952Y-92534619D01*
X146654761Y-92510428D01*
%TO.C,D1*%
X115009047Y-78359809D02*
X115009047Y-77851809D01*
X115130000Y-77851809D01*
X115202571Y-77876000D01*
X115250952Y-77924380D01*
X115275142Y-77972761D01*
X115299333Y-78069523D01*
X115299333Y-78142095D01*
X115275142Y-78238857D01*
X115250952Y-78287238D01*
X115202571Y-78335619D01*
X115130000Y-78359809D01*
X115009047Y-78359809D01*
X115783142Y-78359809D02*
X115492857Y-78359809D01*
X115638000Y-78359809D02*
X115638000Y-77851809D01*
X115589619Y-77924380D01*
X115541238Y-77972761D01*
X115492857Y-77996952D01*
%TO.C,C16*%
X140643428Y-97735571D02*
X140667619Y-97759761D01*
X140691809Y-97832333D01*
X140691809Y-97880714D01*
X140667619Y-97953285D01*
X140619238Y-98001666D01*
X140570857Y-98025857D01*
X140474095Y-98050047D01*
X140401523Y-98050047D01*
X140304761Y-98025857D01*
X140256380Y-98001666D01*
X140208000Y-97953285D01*
X140183809Y-97880714D01*
X140183809Y-97832333D01*
X140208000Y-97759761D01*
X140232190Y-97735571D01*
X140691809Y-97251761D02*
X140691809Y-97542047D01*
X140691809Y-97396904D02*
X140183809Y-97396904D01*
X140256380Y-97445285D01*
X140304761Y-97493666D01*
X140328952Y-97542047D01*
X140183809Y-96816333D02*
X140183809Y-96913095D01*
X140208000Y-96961476D01*
X140232190Y-96985666D01*
X140304761Y-97034047D01*
X140401523Y-97058238D01*
X140595047Y-97058238D01*
X140643428Y-97034047D01*
X140667619Y-97009857D01*
X140691809Y-96961476D01*
X140691809Y-96864714D01*
X140667619Y-96816333D01*
X140643428Y-96792142D01*
X140595047Y-96767952D01*
X140474095Y-96767952D01*
X140425714Y-96792142D01*
X140401523Y-96816333D01*
X140377333Y-96864714D01*
X140377333Y-96961476D01*
X140401523Y-97009857D01*
X140425714Y-97034047D01*
X140474095Y-97058238D01*
%TO.C,C11*%
X163757428Y-108258428D02*
X163733238Y-108282619D01*
X163660666Y-108306809D01*
X163612285Y-108306809D01*
X163539714Y-108282619D01*
X163491333Y-108234238D01*
X163467142Y-108185857D01*
X163442952Y-108089095D01*
X163442952Y-108016523D01*
X163467142Y-107919761D01*
X163491333Y-107871380D01*
X163539714Y-107823000D01*
X163612285Y-107798809D01*
X163660666Y-107798809D01*
X163733238Y-107823000D01*
X163757428Y-107847190D01*
X164241238Y-108306809D02*
X163950952Y-108306809D01*
X164096095Y-108306809D02*
X164096095Y-107798809D01*
X164047714Y-107871380D01*
X163999333Y-107919761D01*
X163950952Y-107943952D01*
X164725047Y-108306809D02*
X164434761Y-108306809D01*
X164579904Y-108306809D02*
X164579904Y-107798809D01*
X164531523Y-107871380D01*
X164483142Y-107919761D01*
X164434761Y-107943952D01*
%TO.C,C8*%
X144961428Y-96985666D02*
X144985619Y-97009857D01*
X145009809Y-97082428D01*
X145009809Y-97130809D01*
X144985619Y-97203380D01*
X144937238Y-97251761D01*
X144888857Y-97275952D01*
X144792095Y-97300142D01*
X144719523Y-97300142D01*
X144622761Y-97275952D01*
X144574380Y-97251761D01*
X144526000Y-97203380D01*
X144501809Y-97130809D01*
X144501809Y-97082428D01*
X144526000Y-97009857D01*
X144550190Y-96985666D01*
X144719523Y-96695380D02*
X144695333Y-96743761D01*
X144671142Y-96767952D01*
X144622761Y-96792142D01*
X144598571Y-96792142D01*
X144550190Y-96767952D01*
X144526000Y-96743761D01*
X144501809Y-96695380D01*
X144501809Y-96598619D01*
X144526000Y-96550238D01*
X144550190Y-96526047D01*
X144598571Y-96501857D01*
X144622761Y-96501857D01*
X144671142Y-96526047D01*
X144695333Y-96550238D01*
X144719523Y-96598619D01*
X144719523Y-96695380D01*
X144743714Y-96743761D01*
X144767904Y-96767952D01*
X144816285Y-96792142D01*
X144913047Y-96792142D01*
X144961428Y-96767952D01*
X144985619Y-96743761D01*
X145009809Y-96695380D01*
X145009809Y-96598619D01*
X144985619Y-96550238D01*
X144961428Y-96526047D01*
X144913047Y-96501857D01*
X144816285Y-96501857D01*
X144767904Y-96526047D01*
X144743714Y-96550238D01*
X144719523Y-96598619D01*
%TO.C,P1*%
X147453047Y-121514809D02*
X147453047Y-121006809D01*
X147646571Y-121006809D01*
X147694952Y-121031000D01*
X147719142Y-121055190D01*
X147743333Y-121103571D01*
X147743333Y-121176142D01*
X147719142Y-121224523D01*
X147694952Y-121248714D01*
X147646571Y-121272904D01*
X147453047Y-121272904D01*
X148227142Y-121514809D02*
X147936857Y-121514809D01*
X148082000Y-121514809D02*
X148082000Y-121006809D01*
X148033619Y-121079380D01*
X147985238Y-121127761D01*
X147936857Y-121151952D01*
%TO.C,P2*%
X168027047Y-121514809D02*
X168027047Y-121006809D01*
X168220571Y-121006809D01*
X168268952Y-121031000D01*
X168293142Y-121055190D01*
X168317333Y-121103571D01*
X168317333Y-121176142D01*
X168293142Y-121224523D01*
X168268952Y-121248714D01*
X168220571Y-121272904D01*
X168027047Y-121272904D01*
X168510857Y-121055190D02*
X168535047Y-121031000D01*
X168583428Y-121006809D01*
X168704380Y-121006809D01*
X168752761Y-121031000D01*
X168776952Y-121055190D01*
X168801142Y-121103571D01*
X168801142Y-121151952D01*
X168776952Y-121224523D01*
X168486666Y-121514809D01*
X168801142Y-121514809D01*
%TO.C,P3*%
X140849047Y-78588809D02*
X140849047Y-78080809D01*
X141042571Y-78080809D01*
X141090952Y-78105000D01*
X141115142Y-78129190D01*
X141139333Y-78177571D01*
X141139333Y-78250142D01*
X141115142Y-78298523D01*
X141090952Y-78322714D01*
X141042571Y-78346904D01*
X140849047Y-78346904D01*
X141308666Y-78080809D02*
X141623142Y-78080809D01*
X141453809Y-78274333D01*
X141526380Y-78274333D01*
X141574761Y-78298523D01*
X141598952Y-78322714D01*
X141623142Y-78371095D01*
X141623142Y-78492047D01*
X141598952Y-78540428D01*
X141574761Y-78564619D01*
X141526380Y-78588809D01*
X141381238Y-78588809D01*
X141332857Y-78564619D01*
X141308666Y-78540428D01*
%TO.C,P4*%
X164217047Y-77572809D02*
X164217047Y-77064809D01*
X164410571Y-77064809D01*
X164458952Y-77089000D01*
X164483142Y-77113190D01*
X164507333Y-77161571D01*
X164507333Y-77234142D01*
X164483142Y-77282523D01*
X164458952Y-77306714D01*
X164410571Y-77330904D01*
X164217047Y-77330904D01*
X164942761Y-77234142D02*
X164942761Y-77572809D01*
X164821809Y-77040619D02*
X164700857Y-77403476D01*
X165015333Y-77403476D01*
%TD*%
M02*
