M48
; DRILL file {KiCad 5.1.12-5.1.12} date Thu 16 Dec 2021 19:46:49 GMT
; FORMAT={-:-/ absolute / inch / decimal}
; #@! TF.CreationDate,2021-12-16T19:46:49+00:00
; #@! TF.GenerationSoftware,Kicad,Pcbnew,5.1.12-5.1.12
FMAT,2
INCH
T1C0.0157
T2C0.0315
T3C0.0394
T4C0.0400
T5C0.0512
T6C0.1200
T7C0.1142
%
G90
G05
T1
X5.81Y-3.085
T2
X4.5342Y-3.4012
X4.655Y-3.35
X4.7231Y-3.4681
X4.84Y-4.525
X4.89Y-3.405
X4.92Y-4.165
X5.0196Y-3.2821
X5.118Y-3.2427
X5.1397Y-4.4853
X5.17Y-3.345
X5.25Y-4.015
X5.25Y-4.065
X5.259Y-3.395
X5.2813Y-3.0928
X5.3037Y-3.2442
X5.3181Y-3.5627
X5.32Y-3.705
X5.3385Y-3.2869
X5.3535Y-3.505
X5.37Y-3.645
X5.38Y-4.485
X5.42Y-3.7235
X5.4294Y-3.045
X5.54Y-3.125
X5.66Y-3.265
X5.66Y-4.065
X5.67Y-3.175
X5.77Y-3.175
X5.87Y-3.265
X5.87Y-4.065
X6.06Y-3.045
X6.12Y-3.655
X6.12Y-3.765
X6.126Y-4.005
X6.13Y-4.195
X6.16Y-3.125
X6.17Y-3.535
X6.17Y-3.585
X6.17Y-3.835
X6.1712Y-3.7855
X6.23Y-4.115
X6.23Y-4.305
X6.23Y-4.355
X6.23Y-4.6309
X6.29Y-4.785
X6.33Y-4.005
X6.35Y-4.265
X6.35Y-4.535
X6.38Y-4.785
X6.44Y-4.215
X6.44Y-4.485
X6.46Y-3.835
X6.48Y-4.785
X6.54Y-3.535
X6.55Y-3.265
X6.72Y-4.215
X7.0Y-4.485
T3
X4.81Y-3.1783
X4.91Y-3.1783
X5.01Y-3.1783
X5.11Y-3.1783
T4
X5.11Y-2.975
X5.21Y-2.975
X5.31Y-2.975
X5.41Y-2.975
X5.47Y-4.875
X5.51Y-2.975
X5.57Y-4.875
X5.61Y-2.975
X5.67Y-4.875
X5.71Y-2.975
X5.77Y-4.875
X5.81Y-2.975
X5.87Y-4.875
X5.91Y-2.975
X5.97Y-4.875
X6.01Y-2.975
X6.07Y-4.875
X6.17Y-2.975
X6.17Y-4.875
X6.27Y-2.975
X6.37Y-2.975
X6.37Y-4.875
X6.47Y-2.975
X6.47Y-4.875
X6.57Y-2.975
X6.57Y-4.875
X6.67Y-2.975
X6.67Y-4.875
X6.77Y-2.975
X6.77Y-4.875
X6.87Y-2.975
X6.87Y-4.875
T5
X6.8897Y-3.8301
X6.8897Y-4.0301
T6
X4.92Y-4.875
X4.97Y-2.975
X6.97Y-3.575
X6.97Y-4.675
T7
G00X4.5023Y-3.2033
M15
G01X4.5377Y-3.2033
M16
G05
G00X4.5023Y-4.1133
M15
G01X4.5377Y-4.1133
M16
G05
G00X5.3823Y-3.2033
M15
G01X5.4177Y-3.2033
M16
G05
G00X5.3823Y-4.1133
M15
G01X5.4177Y-4.1133
M16
G05
T0
M30
