%TF.GenerationSoftware,KiCad,Pcbnew,5.1.12-5.1.12*%
%TF.CreationDate,2021-12-16T19:46:46+00:00*%
%TF.ProjectId,UnoMeter,556e6f4d-6574-4657-922e-6b696361645f,V 0.5*%
%TF.SameCoordinates,Original*%
%TF.FileFunction,Copper,L2,Bot*%
%TF.FilePolarity,Positive*%
%FSLAX46Y46*%
G04 Gerber Fmt 4.6, Leading zero omitted, Abs format (unit mm)*
G04 Created by KiCad (PCBNEW 5.1.12-5.1.12) date 2021-12-16 19:46:46*
%MOMM*%
%LPD*%
G01*
G04 APERTURE LIST*
%TA.AperFunction,ComponentPad*%
%ADD10O,1.600000X1.600000*%
%TD*%
%TA.AperFunction,ComponentPad*%
%ADD11C,1.600000*%
%TD*%
%TA.AperFunction,ComponentPad*%
%ADD12C,2.600000*%
%TD*%
%TA.AperFunction,ComponentPad*%
%ADD13R,2.600000X2.600000*%
%TD*%
%TA.AperFunction,ComponentPad*%
%ADD14O,1.700000X1.700000*%
%TD*%
%TA.AperFunction,ComponentPad*%
%ADD15R,1.700000X1.700000*%
%TD*%
%TA.AperFunction,ComponentPad*%
%ADD16O,1.727200X2.032000*%
%TD*%
%TA.AperFunction,ComponentPad*%
%ADD17C,4.064000*%
%TD*%
%TA.AperFunction,ViaPad*%
%ADD18C,1.200000*%
%TD*%
%TA.AperFunction,ViaPad*%
%ADD19C,0.600000*%
%TD*%
%TA.AperFunction,Conductor*%
%ADD20C,0.508000*%
%TD*%
%TA.AperFunction,Conductor*%
%ADD21C,0.762000*%
%TD*%
%TA.AperFunction,Conductor*%
%ADD22C,0.254000*%
%TD*%
%TA.AperFunction,Conductor*%
%ADD23C,0.381000*%
%TD*%
G04 APERTURE END LIST*
D10*
%TO.P,R28,2*%
%TO.N,Net-(C14-Pad1)*%
X149098000Y-103251000D03*
D11*
%TO.P,R28,1*%
%TO.N,Net-(Q3-Pad3)*%
X149098000Y-82931000D03*
%TD*%
D10*
%TO.P,R27,2*%
%TO.N,Net-(C14-Pad1)*%
X143764000Y-103251000D03*
D11*
%TO.P,R27,1*%
%TO.N,Net-(Q3-Pad3)*%
X143764000Y-82931000D03*
%TD*%
D12*
%TO.P,J1,2*%
%TO.N,/VMEAS+*%
X174998000Y-97285000D03*
D13*
%TO.P,J1,1*%
%TO.N,/VMEAS-*%
X174998000Y-102365000D03*
%TD*%
D14*
%TO.P,D1,2*%
%TO.N,GND*%
X124714000Y-80730000D03*
D15*
%TO.P,D1,1*%
%TO.N,+5V*%
X122174000Y-80730000D03*
D14*
%TO.P,D1,3*%
%TO.N,/A5(SCL)*%
X127254000Y-80730000D03*
%TO.P,D1,4*%
%TO.N,/A4(SDA)*%
X129794000Y-80730000D03*
%TD*%
D16*
%TO.P,P1,1*%
%TO.N,N/C*%
X138938000Y-123825000D03*
%TO.P,P1,2*%
X141478000Y-123825000D03*
%TO.P,P1,3*%
X144018000Y-123825000D03*
%TO.P,P1,4*%
X146558000Y-123825000D03*
%TO.P,P1,5*%
%TO.N,+5V*%
X149098000Y-123825000D03*
%TO.P,P1,6*%
%TO.N,GND*%
X151638000Y-123825000D03*
%TO.P,P1,7*%
X154178000Y-123825000D03*
%TO.P,P1,8*%
%TO.N,/Vin*%
X156718000Y-123825000D03*
%TD*%
%TO.P,P2,1*%
%TO.N,/1000*%
X161798000Y-123825000D03*
%TO.P,P2,2*%
%TO.N,/100*%
X164338000Y-123825000D03*
%TO.P,P2,3*%
%TO.N,/10*%
X166878000Y-123825000D03*
%TO.P,P2,4*%
%TO.N,N/C*%
X169418000Y-123825000D03*
%TO.P,P2,5*%
X171958000Y-123825000D03*
%TO.P,P2,6*%
X174498000Y-123825000D03*
%TD*%
%TO.P,P3,1*%
%TO.N,/A5(SCL)*%
X129794000Y-75565000D03*
%TO.P,P3,2*%
%TO.N,/A4(SDA)*%
X132334000Y-75565000D03*
%TO.P,P3,3*%
%TO.N,N/C*%
X134874000Y-75565000D03*
%TO.P,P3,4*%
X137414000Y-75565000D03*
%TO.P,P3,5*%
%TO.N,/SCK*%
X139954000Y-75565000D03*
%TO.P,P3,6*%
%TO.N,/MISO*%
X142494000Y-75565000D03*
%TO.P,P3,7*%
%TO.N,/MOSI*%
X145034000Y-75565000D03*
%TO.P,P3,8*%
%TO.N,/HEATER*%
X147574000Y-75565000D03*
%TO.P,P3,9*%
%TO.N,N/C*%
X150114000Y-75565000D03*
%TO.P,P3,10*%
%TO.N,/ADCCE*%
X152654000Y-75565000D03*
%TD*%
%TO.P,P4,1*%
%TO.N,N/C*%
X156718000Y-75565000D03*
%TO.P,P4,2*%
%TO.N,/VRANGE*%
X159258000Y-75565000D03*
%TO.P,P4,3*%
%TO.N,N/C*%
X161798000Y-75565000D03*
%TO.P,P4,4*%
X164338000Y-75565000D03*
%TO.P,P4,5*%
X166878000Y-75565000D03*
%TO.P,P4,6*%
X169418000Y-75565000D03*
%TO.P,P4,7*%
X171958000Y-75565000D03*
%TO.P,P4,8*%
X174498000Y-75565000D03*
%TD*%
D17*
%TO.P,P5,1*%
%TO.N,N/C*%
X124968000Y-123825000D03*
%TD*%
%TO.P,P6,1*%
%TO.N,N/C*%
X177038000Y-118745000D03*
%TD*%
%TO.P,P7,1*%
%TO.N,N/C*%
X126238000Y-75565000D03*
%TD*%
%TO.P,P8,1*%
%TO.N,N/C*%
X177038000Y-90805000D03*
%TD*%
D18*
%TO.N,+5V*%
X124206000Y-86487000D03*
X115168035Y-86391572D03*
X122936000Y-114935000D03*
X137668000Y-94576990D03*
X133349998Y-103251000D03*
X133349990Y-101981000D03*
%TO.N,/Vin*%
X166370000Y-82931000D03*
X124968000Y-105791000D03*
%TO.N,/A4(SDA)*%
X129998004Y-82365000D03*
X134713331Y-82402236D03*
X135078878Y-90491546D03*
X135128000Y-94107000D03*
%TO.N,/A5(SCL)*%
X127498006Y-83365000D03*
X135597815Y-83487464D03*
X136398000Y-92583000D03*
X135978990Y-89027000D03*
%TO.N,GNDA*%
X136652000Y-113919000D03*
X130548012Y-113927000D03*
X155448000Y-92837000D03*
X155600897Y-101727000D03*
X155702000Y-106553000D03*
X155448000Y-95631000D03*
%TO.N,GNDD*%
X156464000Y-79375000D03*
X140716000Y-79375000D03*
X133578510Y-86233000D03*
X119968000Y-88091000D03*
%TO.N,/VDDD*%
X137905993Y-77342994D03*
X153924000Y-77343000D03*
X118237000Y-85090000D03*
X131318000Y-84963000D03*
%TO.N,/VDDA*%
X156718000Y-91059000D03*
X158242000Y-110617000D03*
X164084000Y-97409000D03*
X166116000Y-89789000D03*
X156718000Y-89789002D03*
X158242000Y-117624990D03*
X158242000Y-109347000D03*
X158242000Y-104521000D03*
X156718000Y-97409000D03*
X156747879Y-96150951D03*
%TO.N,/HEATER*%
X134144467Y-78556471D03*
D19*
X147574000Y-78359000D03*
D18*
%TO.N,/SCK*%
X146558000Y-80645000D03*
X144018000Y-80645000D03*
%TO.N,/VMEAS-*%
X163576000Y-107061000D03*
X170688000Y-107061000D03*
X163576000Y-113919000D03*
X177800000Y-113919000D03*
%TO.N,/1000*%
X160782000Y-101727000D03*
X159766000Y-121539000D03*
%TO.N,/100*%
X161290000Y-108331000D03*
X162052000Y-121539000D03*
%TO.N,/10*%
X161290000Y-115189000D03*
X164592000Y-121539000D03*
%TD*%
D20*
%TO.N,+5V*%
X115263463Y-86487000D02*
X115168035Y-86391572D01*
X124206000Y-86487000D02*
X115263463Y-86487000D01*
D21*
X133349998Y-104521002D02*
X133349998Y-103251000D01*
X122936000Y-114935000D02*
X133349998Y-104521002D01*
D20*
X136144000Y-99186990D02*
X133349990Y-101981000D01*
X136144000Y-96100990D02*
X136144000Y-99186990D01*
X137668000Y-94576990D02*
X136144000Y-96100990D01*
%TO.N,/Vin*%
X165100000Y-84201000D02*
X166370000Y-82931000D01*
X138176000Y-84201000D02*
X165100000Y-84201000D01*
X137452001Y-84924999D02*
X138176000Y-84201000D01*
X137452001Y-84924999D02*
X124968000Y-97409000D01*
X124968000Y-97409000D02*
X124968000Y-98679000D01*
X124968000Y-98679000D02*
X124968000Y-105791000D01*
D22*
%TO.N,/A4(SDA)*%
X129998004Y-82365000D02*
X134676095Y-82365000D01*
X134676095Y-82365000D02*
X134713331Y-82402236D01*
X135078878Y-94057878D02*
X135128000Y-94107000D01*
X135078878Y-90491546D02*
X135078878Y-94057878D01*
%TO.N,/A5(SCL)*%
X135475351Y-83365000D02*
X135597815Y-83487464D01*
X127498006Y-83365000D02*
X135475351Y-83365000D01*
X136398000Y-89446010D02*
X135978990Y-89027000D01*
X136398000Y-92583000D02*
X136398000Y-89446010D01*
D21*
%TO.N,GNDA*%
X136652000Y-113919000D02*
X130556012Y-113919000D01*
X130556012Y-113919000D02*
X130548012Y-113927000D01*
D20*
X155600897Y-101727000D02*
X155600897Y-106451897D01*
D22*
X155600897Y-106451897D02*
X155702000Y-106553000D01*
D20*
X155448000Y-92837000D02*
X155448000Y-95631000D01*
D22*
%TO.N,GNDD*%
X156464000Y-79329001D02*
X156464000Y-79375000D01*
D21*
X156464000Y-79375000D02*
X141564528Y-79375000D01*
X141564528Y-79375000D02*
X140716000Y-79375000D01*
X133578510Y-86233000D02*
X131720510Y-88091000D01*
X131720510Y-88091000D02*
X119968000Y-88091000D01*
%TO.N,/VDDD*%
X153923994Y-77342994D02*
X153924000Y-77343000D01*
X137905993Y-77342994D02*
X153923994Y-77342994D01*
X118237000Y-85090000D02*
X131191000Y-85090000D01*
X131191000Y-85090000D02*
X131318000Y-84963000D01*
D20*
%TO.N,/VDDA*%
X166116000Y-89789000D02*
X156718000Y-89789000D01*
X156718000Y-89789000D02*
X156718000Y-89789002D01*
X158242000Y-110617000D02*
X158242000Y-117624990D01*
X158242000Y-104521000D02*
X158242000Y-109347000D01*
X164084000Y-97409000D02*
X156718000Y-97409000D01*
X156718000Y-96121072D02*
X156747879Y-96150951D01*
X156718000Y-90805000D02*
X156718000Y-96121072D01*
D23*
%TO.N,/HEATER*%
X134341938Y-78359000D02*
X134144467Y-78556471D01*
X147574000Y-78359000D02*
X134341938Y-78359000D01*
%TO.N,/SCK*%
X146558000Y-80645000D02*
X144018000Y-80645000D01*
%TO.N,/VMEAS-*%
X163576000Y-107061000D02*
X170688000Y-107061000D01*
X163576000Y-113919000D02*
X177800000Y-113919000D01*
%TO.N,/1000*%
X159420001Y-121193001D02*
X159766000Y-121539000D01*
X160782000Y-101727000D02*
X159420001Y-103088999D01*
X159420001Y-103088999D02*
X159420001Y-121193001D01*
%TO.N,/100*%
X160299499Y-119786499D02*
X162052000Y-121539000D01*
X160299499Y-109321501D02*
X160299499Y-119786499D01*
X161290000Y-108331000D02*
X160299499Y-109321501D01*
%TO.N,/10*%
X161290000Y-118237000D02*
X164592000Y-121539000D01*
X161290000Y-118237000D02*
X161290000Y-115189000D01*
%TD*%
M02*
